<svg width="61" height="49" viewBox="0 0 61 49" fill="none" xmlns="http://www.w3.org/2000/svg">
<defs>
<filter id="filter0_d_413:16925" x="0.400002" y="0" width="60" height="50" filterUnits="userSpaceOnUse" color-interpolation-filters="sRGB">
<feFlood flood-opacity="0" result="BackgroundImageFix"/>
<feColorMatrix in="SourceAlpha" type="matrix" values="0 0 0 0 0 0 0 0 0 0 0 0 0 0 0 0 0 0 127 0" result="hardAlpha"/>
<feOffset dx="1" dy="1"/>
<feGaussianBlur stdDeviation="1"/>
<feColorMatrix type="matrix" values="0 0 0 0 0 0 0 0 0 0 0 0 0 0 0 0 0 0 0.2 0"/>
<feBlend mode="normal" in2="BackgroundImageFix" result="effect1_dropShadow_413:16925"/>
<feBlend mode="normal" in="SourceGraphic" in2="effect1_dropShadow_413:16925" result="shape"/>
</filter>
<filter id="filter1_d_413:16925" x="10.4" y="5" width="40" height="40" filterUnits="userSpaceOnUse" color-interpolation-filters="sRGB">
<feFlood flood-opacity="0" result="BackgroundImageFix"/>
<feColorMatrix in="SourceAlpha" type="matrix" values="0 0 0 0 0 0 0 0 0 0 0 0 0 0 0 0 0 0 127 0" result="hardAlpha"/>
<feOffset dx="1" dy="1"/>
<feGaussianBlur stdDeviation="1"/>
<feColorMatrix type="matrix" values="0 0 0 0 0 0 0 0 0 0 0 0 0 0 0 0 0 0 0.2 0"/>
<feBlend mode="normal" in2="BackgroundImageFix" result="effect1_dropShadow_413:16925"/>
<feBlend mode="normal" in="SourceGraphic" in2="effect1_dropShadow_413:16925" result="shape"/>
</filter>
<clipPath id="clip0_413:16925">
<path d="M1.4 9C1.4 4.58172 4.98172 1 9.4 1H49.4C53.8183 1 57.4 4.58172 57.4 9V39C57.4 43.4183 53.8183 47 49.4 47H9.4C4.98172 47 1.4 43.4183 1.4 39V9Z" fill="white"/>
</clipPath>
</defs>
<g filter="url(#filter0_d_413:16925)">
<g clip-path="url(#clip0_413:16925)">
<path d="M1.4 9C1.4 4.58172 4.98172 1 9.4 1H49.4C53.8183 1 57.4 4.58172 57.4 9V39C57.4 43.4183 53.8183 47 49.4 47H9.4C4.98172 47 1.4 43.4183 1.4 39V9Z" fill="#4C8FBB"/>
<g filter="url(#filter1_d_413:16925)">
<path fill-rule="evenodd" clip-rule="evenodd" d="M42.8128 10.5658C41.7473 9.50104 40.1804 9 38.4254 9C35.793 9 32.6592 10.0647 29.4 12.0063C26.1408 10.0647 23.007 9 20.3746 9C18.5569 9 17.0527 9.50104 15.9872 10.5658C13.3548 13.1962 14.1069 18.4572 17.4288 23.9687C14.1069 29.4802 13.3548 34.8038 15.9872 37.4342C17.0527 38.499 18.6196 39 20.3746 39C23.007 39 26.1408 37.9353 29.4 35.9937C32.6592 37.9353 35.793 39 38.4254 39C40.2431 39 41.7473 38.499 42.8128 37.4342C45.4452 34.8038 44.6931 29.5428 41.3712 24.0313C44.6304 18.5198 45.4452 13.1962 42.8128 10.5658ZM38.3628 11.5052C39.5536 11.5052 40.4311 11.8184 40.9952 12.382C42.4994 13.8852 42.0606 17.5177 39.8043 21.714C38.7388 20.2108 37.4853 18.7703 36.0437 17.3298C34.6021 15.8893 33.1606 14.6367 31.6563 13.572C34.1007 12.2568 36.4198 11.5052 38.3628 11.5052ZM17.6795 12.382C18.2436 11.8184 19.121 11.5052 20.3119 11.5052C22.2549 11.5052 24.574 12.2568 27.0183 13.572C25.5141 14.6367 24.0725 15.8893 22.631 17.3298C21.2521 18.7077 19.9986 20.2109 18.933 21.6514C16.6767 17.4551 16.238 13.8225 17.6795 12.382ZM20.3119 36.5574C19.121 36.5574 18.2436 36.2443 17.6795 35.6806C16.1753 34.1775 16.614 30.5449 18.8704 26.3487C19.9359 27.8518 21.1894 29.2923 22.631 30.7328C24.0725 32.1733 25.5141 33.4259 27.0183 34.4906C24.574 35.8059 22.2549 36.5574 20.3119 36.5574ZM24.3859 28.9791C22.7563 27.3507 21.3774 25.6597 20.2492 24.0313C21.3774 22.4029 22.6936 20.7119 24.3232 19.0835C25.8901 17.5177 27.5824 16.1399 29.2747 15.0125C30.9669 16.1399 32.5966 17.5177 34.2261 19.0835C35.8557 20.7119 37.2346 22.4029 38.3628 24.0313C37.2346 25.6597 35.9184 27.3507 34.2888 28.9791C32.7219 30.5449 31.0296 31.9228 29.3373 33.0501C27.6451 31.9228 26.0155 30.5449 24.3859 28.9791ZM40.9952 35.6806C40.4311 36.2443 39.5536 36.5574 38.3628 36.5574C36.4198 36.5574 34.1007 35.8059 31.6563 34.4906C33.1606 33.4259 34.6021 32.1733 36.0437 30.7328C37.4226 29.3549 38.6761 27.8518 39.7416 26.4113C41.998 30.6075 42.4367 34.2401 40.9952 35.6806ZM29.3373 21.5261C27.9585 21.5261 26.8303 22.6534 26.8303 24.0313C26.8303 25.4092 27.9585 26.5365 29.3373 26.5365C30.7162 26.5365 31.8444 25.4092 31.8444 24.0313C31.8444 22.6534 30.7162 21.5261 29.3373 21.5261Z" fill="#E9F1F5"/>
</g>
</g>
</g>
</svg>
