<svg width="57" height="46" viewBox="0 0 57 46" fill="none" xmlns="http://www.w3.org/2000/svg">
<defs>
<filter id="filter0_d_413:16925" x="9.4" y="4" width="40" height="40" filterUnits="userSpaceOnUse" color-interpolation-filters="sRGB">
<feFlood flood-opacity="0" result="BackgroundImageFix"/>
<feColorMatrix in="SourceAlpha" type="matrix" values="0 0 0 0 0 0 0 0 0 0 0 0 0 0 0 0 0 0 127 0" result="hardAlpha"/>
<feOffset dx="1" dy="1"/>
<feGaussianBlur stdDeviation="1"/>
<feColorMatrix type="matrix" values="0 0 0 0 0 0 0 0 0 0 0 0 0 0 0 0 0 0 0.2 0"/>
<feBlend mode="normal" in2="BackgroundImageFix" result="effect1_dropShadow_413:16925"/>
<feBlend mode="normal" in="SourceGraphic" in2="effect1_dropShadow_413:16925" result="shape"/>
</filter>
<clipPath id="clip0_413:16925">
<path d="M0.400002 8C0.400002 3.58172 3.98172 0 8.4 0H48.4C52.8183 0 56.4 3.58172 56.4 8V38C56.4 42.4183 52.8183 46 48.4 46H8.4C3.98172 46 0.400002 42.4183 0.400002 38V8Z" fill="white"/>
</clipPath>
</defs>
<g clip-path="url(#clip0_413:16925)">
<g filter="url(#filter0_d_413:16925)">
<path fill-rule="evenodd" clip-rule="evenodd" d="M41.8128 9.56576C40.7473 8.50104 39.1804 8 37.4254 8C34.793 8 31.6592 9.06471 28.4 11.0063C25.1408 9.06471 22.007 8 19.3746 8C17.5569 8 16.0527 8.50104 14.9872 9.56576C12.3548 12.1962 13.1069 17.4572 16.4288 22.9687C13.1069 28.4802 12.3548 33.8038 14.9872 36.4342C16.0527 37.499 17.6196 38 19.3746 38C22.007 38 25.1408 36.9353 28.4 34.9937C31.6592 36.9353 34.793 38 37.4254 38C39.2431 38 40.7473 37.499 41.8128 36.4342C44.4452 33.8038 43.6931 28.5428 40.3712 23.0313C43.6304 17.5198 44.4452 12.1962 41.8128 9.56576ZM37.3628 10.5052C38.5536 10.5052 39.4311 10.8184 39.9952 11.382C41.4994 12.8852 41.0606 16.5177 38.8043 20.714C37.7388 19.2108 36.4853 17.7703 35.0437 16.3298C33.6021 14.8893 32.1606 13.6367 30.6563 12.572C33.1007 11.2568 35.4198 10.5052 37.3628 10.5052ZM16.6795 11.382C17.2436 10.8184 18.121 10.5052 19.3119 10.5052C21.2549 10.5052 23.574 11.2568 26.0183 12.572C24.5141 13.6367 23.0725 14.8893 21.631 16.3298C20.2521 17.7077 18.9986 19.2109 17.933 20.6514C15.6767 16.4551 15.238 12.8225 16.6795 11.382ZM19.3119 35.5574C18.121 35.5574 17.2436 35.2443 16.6795 34.6806C15.1753 33.1775 15.614 29.5449 17.8704 25.3487C18.9359 26.8518 20.1894 28.2923 21.631 29.7328C23.0725 31.1733 24.5141 32.4259 26.0183 33.4906C23.574 34.8059 21.2549 35.5574 19.3119 35.5574ZM23.3859 27.9791C21.7563 26.3507 20.3774 24.6597 19.2492 23.0313C20.3774 21.4029 21.6936 19.7119 23.3232 18.0835C24.8901 16.5177 26.5824 15.1399 28.2747 14.0125C29.9669 15.1399 31.5965 16.5177 33.2261 18.0835C34.8557 19.7119 36.2346 21.4029 37.3628 23.0313C36.2346 24.6597 34.9184 26.3507 33.2888 27.9791C31.7219 29.5449 30.0296 30.9228 28.3373 32.0501C26.6451 30.9228 25.0155 29.5449 23.3859 27.9791ZM39.9952 34.6806C39.4311 35.2443 38.5536 35.5574 37.3628 35.5574C35.4198 35.5574 33.1007 34.8059 30.6563 33.4906C32.1606 32.4259 33.6021 31.1733 35.0437 29.7328C36.4226 28.3549 37.6761 26.8518 38.7416 25.4113C40.998 29.6075 41.4367 33.2401 39.9952 34.6806ZM28.3373 20.5261C26.9585 20.5261 25.8303 21.6534 25.8303 23.0313C25.8303 24.4092 26.9585 25.5365 28.3373 25.5365C29.7162 25.5365 30.8444 24.4092 30.8444 23.0313C30.8444 21.6534 29.7162 20.5261 28.3373 20.5261Z" fill="#E9F1F5"/>
</g>
</g>
</svg>
