<svg width="139" height="138" viewBox="0 0 139 138" fill="none" xmlns="http://www.w3.org/2000/svg">
<defs>
<filter id="filter0_d_413:13422" x="44.8763" y="51.7546" width="52.8139" height="38.4072" filterUnits="userSpaceOnUse" color-interpolation-filters="sRGB">
<feFlood flood-opacity="0" result="BackgroundImageFix"/>
<feColorMatrix in="SourceAlpha" type="matrix" values="0 0 0 0 0 0 0 0 0 0 0 0 0 0 0 0 0 0 127 0" result="hardAlpha"/>
<feOffset dx="1.07784" dy="1.07784"/>
<feGaussianBlur stdDeviation="1.07784"/>
<feColorMatrix type="matrix" values="0 0 0 0 0.0196078 0 0 0 0 0.27451 0 0 0 0 0.447059 0 0 0 1 0"/>
<feBlend mode="normal" in2="BackgroundImageFix" result="effect1_dropShadow_413:13422"/>
<feBlend mode="normal" in="SourceGraphic" in2="effect1_dropShadow_413:13422" result="shape"/>
</filter>
<radialGradient id="paint0_radial_413:13422" cx="0" cy="0" r="1" gradientUnits="userSpaceOnUse" gradientTransform="translate(69.6671 68.9994) rotate(90) scale(70.0593)">
<stop offset="0.465948" stop-color="#2174AB"/>
<stop offset="1" stop-color="#003D67"/>
</radialGradient>
</defs>
<path fill-rule="evenodd" clip-rule="evenodd" d="M24.6048 15.3531C21.5022 17.962 18.6291 20.835 16.0203 23.9376C19.4885 27.9872 20.2126 33.9402 17.3951 38.8202C14.5745 43.7057 9.04795 46.0549 3.8016 45.0677C2.4319 48.8365 1.37646 52.7563 0.666985 56.7951C5.70035 58.5654 9.30848 63.3612 9.30848 68.9998C9.30848 74.6383 5.70042 79.4342 0.667123 81.2045C1.37663 85.2432 2.43208 89.1628 3.80178 92.9316C9.04828 91.9441 14.5751 94.2933 17.3958 99.1789C20.2133 104.059 19.4892 110.012 16.0208 114.062C18.6297 117.164 21.5028 120.037 24.6054 122.646C28.655 119.178 34.6077 118.455 39.4875 121.272C44.3728 124.092 46.722 129.619 45.7351 134.865C49.5039 136.234 53.4236 137.29 57.4624 137.999C59.2328 132.966 64.0285 129.358 69.6669 129.358C75.3054 129.358 80.1011 132.966 81.8715 137.999C85.9104 137.29 89.8302 136.234 93.5991 134.865C92.6123 129.619 94.9615 124.092 99.8467 121.272C104.726 118.455 110.679 119.179 114.729 122.646C117.831 120.037 120.704 117.164 123.313 114.062C119.845 110.012 119.121 104.06 121.939 99.1797C124.759 94.2943 130.286 91.9451 135.532 92.9323C136.902 89.1635 137.957 85.2438 138.667 81.205C133.634 79.4346 130.026 74.6389 130.026 69.0006C130.026 63.362 133.634 58.5662 138.667 56.7959C137.958 52.757 136.902 48.8372 135.533 45.0682C130.286 46.0556 124.759 43.7064 121.939 38.8209C119.121 33.9407 119.845 27.9875 123.314 23.9379C120.705 20.835 117.832 17.9618 114.729 15.3528C110.679 18.821 104.726 19.5451 99.8463 16.7276C94.9608 13.907 92.6116 8.3804 93.5989 3.13403C89.83 1.76432 85.9103 0.708877 81.8714 -0.000610352C80.1013 5.03293 75.3053 8.64121 69.6666 8.64121C64.028 8.64121 59.2321 5.03299 57.4619 -0.000481256C53.4232 0.70902 49.5036 1.76445 45.7349 3.13412C46.7223 8.3806 44.3732 13.9074 39.4876 16.7281C34.6074 19.5456 28.6544 18.8215 24.6048 15.3531Z" fill="url(#paint0_radial_413:13422)"/>
<circle cx="70.2058" cy="69.5382" r="33.9518" fill="#83B8CC"/>
<path d="M55.931 26.4247C56.1672 26.9914 56.3136 27.5914 56.365 28.2031C56.413 28.7197 56.3474 29.2405 56.1729 29.729C55.9948 30.1963 55.7098 30.6153 55.3406 30.9526C54.9165 31.3412 54.4213 31.6443 53.8823 31.8453C53.3671 32.0632 52.8187 32.1919 52.2604 32.2259C51.79 32.2523 51.3204 32.1606 50.8945 31.9591C50.4513 31.7373 50.0645 31.4174 49.7634 31.0237C49.3857 30.5249 49.0826 29.9737 48.8636 29.3875C48.6365 28.835 48.4961 28.2507 48.4474 27.6554C48.4043 27.1418 48.4722 26.625 48.6466 26.1401C48.8223 25.6702 49.1034 25.2467 49.4682 24.9024C49.8957 24.5137 50.393 24.2096 50.9337 24.006C51.4412 23.7926 51.9811 23.6664 52.5307 23.6326C53.0019 23.6054 53.4725 23.6958 53.9001 23.8958C54.3439 24.1133 54.7321 24.4297 55.0347 24.8205C55.4125 25.3071 55.7147 25.8479 55.931 26.4247V26.4247ZM54.3625 27.136C54.2207 26.7733 54.0456 26.4244 53.8396 26.0939C53.6721 25.8169 53.4522 25.5753 53.1923 25.3825C52.955 25.2125 52.6758 25.1104 52.3849 25.0873C52.0397 25.0668 51.6946 25.129 51.3783 25.2687C51.0485 25.387 50.7546 25.5878 50.5246 25.852C50.3326 26.0876 50.1997 26.3656 50.1369 26.663C50.0751 26.9789 50.0751 27.3039 50.1369 27.6198C50.2011 27.9768 50.3024 28.3261 50.4393 28.662C50.5841 29.0332 50.7627 29.3904 50.9728 29.729C51.1424 30.0044 51.3619 30.2456 51.6201 30.4404C51.856 30.6105 52.1341 30.7126 52.424 30.7356C52.7694 30.7494 53.1135 30.685 53.4306 30.5471C53.7628 30.4279 54.059 30.2259 54.2913 29.9602C54.4853 29.7268 54.6163 29.4476 54.6719 29.1492C54.7342 28.8286 54.7342 28.4989 54.6719 28.1782C54.6018 27.8242 54.4982 27.4776 54.3625 27.1432V27.136Z" fill="white"/>
<path d="M65.9405 28.1675C65.9561 28.2675 65.9645 28.3686 65.9654 28.4698C65.9697 28.5379 65.9637 28.6063 65.9476 28.6726C65.9383 28.7171 65.9161 28.758 65.8836 28.7899C65.8576 28.8161 65.824 28.8335 65.7876 28.8397L61.7612 29.3946C61.638 29.4151 61.5115 29.3898 61.4055 29.3235C61.3468 29.2793 61.2987 29.2225 61.2648 29.1572C61.231 29.092 61.2122 29.0199 61.2099 28.9464L60.2424 21.9643C60.2237 21.8986 60.2199 21.8295 60.2315 21.7621C60.243 21.6948 60.2696 21.6309 60.3092 21.5752C60.3489 21.5195 60.4005 21.4734 60.4604 21.4404C60.5203 21.4074 60.5868 21.3883 60.655 21.3846L64.6565 20.8332C64.6901 20.8226 64.7261 20.8226 64.7597 20.8332C64.7978 20.8577 64.8286 20.8922 64.8486 20.9328C64.8813 20.9935 64.9064 21.058 64.9233 21.1249C64.9482 21.2257 64.9672 21.3278 64.9802 21.4308C64.9942 21.5286 65.0025 21.6272 65.0051 21.726C65.0069 21.7931 64.9997 21.8601 64.9837 21.9252C64.9758 21.9698 64.9562 22.0116 64.9268 22.0461C64.9009 22.0718 64.8671 22.0881 64.8308 22.0924L61.9853 22.4872L62.2556 24.447L64.6779 24.1127C64.7144 24.1063 64.752 24.1126 64.7846 24.1305C64.8227 24.1534 64.8535 24.1867 64.8735 24.2265C64.9076 24.284 64.9328 24.3464 64.9482 24.4114C64.9722 24.5076 64.9912 24.605 65.0051 24.7031C65.0187 24.8022 65.027 24.9019 65.03 25.0019C65.032 25.0678 65.0248 25.1336 65.0086 25.1975C64.9985 25.2407 64.9763 25.2802 64.9446 25.3113C64.9177 25.3357 64.8844 25.3517 64.8486 25.3576L62.4264 25.6919L62.7394 27.9505L65.624 27.5522C65.6609 27.5482 65.6981 27.5556 65.7307 27.5735C65.7707 27.5952 65.803 27.6287 65.8232 27.6695C65.8566 27.7286 65.8817 27.7921 65.8979 27.858C65.9181 27.9603 65.9324 28.0636 65.9405 28.1675V28.1675Z" fill="white"/>
<path d="M73.9785 28.2633C74.0167 28.3793 74.0453 28.4983 74.0639 28.619C74.0715 28.6537 74.0702 28.6898 74.0603 28.724C74.0504 28.7582 74.032 28.7893 74.007 28.8146C73.9353 28.8655 73.8495 28.8929 73.7616 28.8928C73.6454 28.8928 73.4853 28.8928 73.2814 28.8928C73.068 28.8928 72.9008 28.8928 72.7834 28.8715C72.6919 28.8663 72.6012 28.8508 72.5131 28.8253C72.4616 28.8153 72.4158 28.786 72.3851 28.7435C72.3566 28.7039 72.3361 28.6592 72.3246 28.6119L71.8231 26.9721L68.7855 26.8903L68.2307 28.4589C68.2168 28.5111 68.194 28.5604 68.1631 28.6047C68.128 28.6473 68.0809 28.6783 68.0279 28.6937C67.9448 28.719 67.8587 28.7333 67.7718 28.7363H67.3379C67.1868 28.7358 67.0359 28.7251 66.8862 28.7043C66.8031 28.7015 66.7243 28.6671 66.6656 28.6083C66.6443 28.5796 66.6298 28.5465 66.623 28.5114C66.6162 28.4763 66.6174 28.4401 66.6265 28.4055C66.65 28.2841 66.6845 28.165 66.7297 28.0499L69.4115 20.9361C69.4356 20.8769 69.4666 20.8208 69.504 20.769C69.5476 20.7212 69.6046 20.6877 69.6676 20.6729C69.7666 20.6488 69.8681 20.6369 69.97 20.6374C70.1016 20.6374 70.2723 20.6374 70.4822 20.6374C70.692 20.6374 70.9268 20.6374 71.0726 20.6623C71.1928 20.6666 71.3121 20.6845 71.4283 20.7156C71.4955 20.7312 71.5556 20.7687 71.599 20.8223C71.639 20.8797 71.6691 20.9435 71.6879 21.0109L73.9785 28.2633ZM70.4217 22.2166L69.1839 25.6241L71.4781 25.6846L70.4217 22.2166Z" fill="white"/>
<path d="M81.2097 30.1805C81.2011 30.2185 81.1798 30.2524 81.1492 30.2766C81.106 30.306 81.0556 30.3232 81.0034 30.3264C80.9183 30.3348 80.8325 30.3348 80.7473 30.3264C80.6406 30.3264 80.509 30.2908 80.3561 30.2552C80.2263 30.2291 80.0981 30.1958 79.9719 30.1557C79.8887 30.1325 79.8086 30.099 79.7336 30.0561C79.6866 30.0332 79.6471 29.9975 79.6198 29.9529C79.6059 29.915 79.6059 29.8734 79.6198 29.8355L81.007 23.4759L78.0619 22.8356L76.6747 29.1917C76.6716 29.2119 76.6643 29.2312 76.6533 29.2483C76.6422 29.2655 76.6277 29.2801 76.6107 29.2913C76.5674 29.3207 76.5171 29.3379 76.4649 29.3411C76.3798 29.3511 76.2938 29.3511 76.2088 29.3411C76.1056 29.3411 75.974 29.3056 75.8175 29.2735C75.661 29.2415 75.533 29.206 75.4298 29.174C75.349 29.1471 75.2705 29.1138 75.1951 29.0744C75.1484 29.0494 75.1092 29.0126 75.0812 28.9677C75.0688 28.9307 75.0688 28.8908 75.0812 28.8538L76.6498 21.6654C76.6596 21.5948 76.6836 21.5269 76.7203 21.4658C76.757 21.4047 76.8056 21.3516 76.8632 21.3097C76.9709 21.2478 77.0984 21.2299 77.2189 21.2599L82.4404 22.3981C82.5038 22.4085 82.5645 22.4314 82.6189 22.4656C82.6732 22.4999 82.7202 22.5446 82.7569 22.5973C82.8208 22.7239 82.8348 22.8699 82.7961 23.0064L81.2097 30.1805Z" fill="white"/>
<path d="M89.0739 30.9522C88.9751 31.1989 88.8356 31.4273 88.6613 31.628C88.508 31.8062 88.3251 31.9565 88.1207 32.0726C87.921 32.1835 87.7049 32.2615 87.4805 32.3038C87.2463 32.3497 87.0072 32.3652 86.7691 32.3501C86.512 32.3378 86.2568 32.2985 86.0079 32.2327C85.722 32.1595 85.4424 32.0631 85.1721 31.9446L83.1873 31.1123C83.0692 31.0666 82.9718 30.9794 82.9135 30.8669C82.8872 30.7992 82.8759 30.7267 82.8802 30.6543C82.8845 30.5819 82.9043 30.5112 82.9384 30.4472L85.6665 23.9417C85.6877 23.8726 85.7238 23.809 85.7724 23.7555C85.821 23.7021 85.8807 23.6599 85.9475 23.6322C86.0648 23.5969 86.1909 23.6044 86.3032 23.6536L88.1741 24.4396C88.5674 24.5957 88.9411 24.7974 89.2874 25.0407C89.5497 25.2241 89.7733 25.4574 89.9454 25.7272C90.0947 25.9686 90.1804 26.244 90.1944 26.5275C90.2058 27.0317 90.0425 27.5244 89.732 27.9218C89.6222 28.0587 89.4927 28.1785 89.3478 28.2775C89.2031 28.3704 89.0447 28.4401 88.8783 28.4838C88.7012 28.5319 88.5174 28.5511 88.3341 28.5407C88.5235 28.6631 88.6927 28.8143 88.8356 28.9889C88.9728 29.158 89.0776 29.3509 89.1451 29.5579C89.2162 29.7721 89.2476 29.9976 89.2376 30.2231C89.2263 30.4739 89.1709 30.7207 89.0739 30.9522V30.9522ZM87.4805 30.344C87.5487 30.1867 87.5849 30.0175 87.5872 29.846C87.5887 29.6886 87.5508 29.5333 87.4769 29.3943C87.3935 29.2413 87.2783 29.1079 87.139 29.0031C86.9414 28.8561 86.7248 28.7365 86.4952 28.6474L85.5989 28.2704L84.7061 30.4045L85.8016 30.8633C85.98 30.9436 86.1695 30.9964 86.3636 31.0198C86.5176 31.0379 86.6737 31.0246 86.8225 30.9807C86.9644 30.9389 87.0947 30.8646 87.203 30.7637C87.3257 30.6463 87.4205 30.5029 87.4805 30.344V30.344ZM88.4302 26.9899C88.4917 26.8531 88.5267 26.7058 88.5333 26.556C88.538 26.4227 88.5087 26.2905 88.4479 26.1718C88.3823 26.0446 88.2901 25.9331 88.1776 25.8446C88.0134 25.7204 87.8327 25.6198 87.6405 25.5458L86.8723 25.2221L86.0613 27.1606L86.9078 27.5163C87.0837 27.5974 87.273 27.6457 87.4663 27.6586C87.6091 27.6647 87.7515 27.6379 87.8824 27.5803C88.0063 27.5269 88.1168 27.4468 88.2061 27.3456C88.2988 27.2414 88.3712 27.1207 88.4195 26.9899H88.4302Z" fill="white"/>
<g filter="url(#filter0_d_413:13422)">
<path d="M45.9541 66.1389C48.5529 62.4079 54.6379 58.2201 57.8887 56.587C68.961 51.0303 79.5505 52.3674 85.5418 55.9152C90.8965 59.0819 95.1062 64.0092 94.3736 70.9799C93.6395 77.9719 89 83.101 84.5115 85.0488C78.8985 87.4865 73.1851 87.4188 68.4412 85.6171C65.6229 84.5482 60.506 81.9604 57.9694 77.1606L67.571 72.0288C71.1326 79.5983 80.3943 80.2729 84.2389 78.9265C86.1857 78.244 92.0789 75.963 92.5985 68.9976C92.9424 64.3796 89.6532 60.0472 84.8169 58.086C77.9357 55.2978 70.0997 57.5257 65.5316 61.1386C61.8933 64.0158 59.8275 66.5014 55.4287 73.1308L45.9541 66.1389ZM70.1063 67.8517C69.892 72.8919 75.8633 76.7716 81.2724 76.6003C89.3809 76.344 90.9308 70.4806 90.8676 67.9818C90.7417 62.9921 85.7124 59.9582 81.1997 59.6608C74.103 59.1921 70.3192 62.8261 70.1063 67.8517Z" fill="#E0F4FF"/>
</g>
</svg>
