<svg width="265" height="240" viewBox="0 0 265 240" fill="none" xmlns="http://www.w3.org/2000/svg">
<path fill-rule="evenodd" clip-rule="evenodd" d="M36.2695 -29.4502C42.4329 -36.7802 49.2205 -43.5678 56.5505 -49.7311C66.117 -41.5385 80.1794 -39.8281 91.7074 -46.4839C103.248 -53.1469 108.798 -66.2019 106.466 -78.5952C115.369 -81.8308 124.629 -84.324 134.169 -86C138.351 -74.1099 149.681 -65.5867 163.001 -65.5867C176.32 -65.5867 187.649 -74.1099 191.832 -85.9999C201.373 -84.3238 210.632 -81.8305 219.535 -78.5949C217.204 -66.2016 222.753 -53.1467 234.294 -46.4837C245.822 -39.8281 259.884 -41.5383 269.45 -49.7307C276.78 -43.5673 283.568 -36.7797 289.731 -29.4498C281.539 -19.8834 279.829 -5.82128 286.484 5.70651C293.147 17.247 306.202 22.7966 318.595 20.4652C321.831 29.3684 324.324 38.6279 326 48.1689C314.11 52.3511 305.587 63.6802 305.587 76.9999C305.587 90.3197 314.11 101.649 326 105.831C324.324 115.372 321.831 124.632 318.595 133.535C306.202 131.203 293.147 136.753 286.484 148.294C279.828 159.822 281.539 173.884 289.731 183.45C283.568 190.78 276.781 197.567 269.451 203.73C259.884 195.538 245.822 193.828 234.295 200.484C222.754 207.147 217.204 220.202 219.536 232.595C210.632 235.831 201.373 238.324 191.831 240C187.649 228.11 176.32 219.587 163 219.587C149.68 219.587 138.351 228.11 134.169 240C124.628 238.324 115.369 235.831 106.466 232.595C108.797 220.202 103.248 207.147 91.707 200.484C80.179 193.828 66.1166 195.538 56.5501 203.731C49.2202 197.568 42.4327 190.78 36.2695 183.45C44.4621 173.884 46.1724 159.821 39.5167 148.293C32.8536 136.753 19.7985 131.203 7.40517 133.535C4.16949 124.632 1.67621 115.372 0.000175476 105.831C11.8902 101.649 20.4133 90.3198 20.4133 77C20.4133 63.6802 11.8902 52.351 0.000194019 48.1689C1.67624 38.6279 4.16954 29.3683 7.40523 20.4651C19.7985 22.7968 32.8535 17.2473 39.5166 5.70655C46.1723 -5.82142 44.462 -19.8837 36.2695 -29.4502ZM163 173.781C216.451 173.781 259.781 130.451 259.781 77C259.781 23.5492 216.451 -19.7813 163 -19.7813C109.549 -19.7813 66.2187 23.5492 66.2187 77C66.2187 130.451 109.549 173.781 163 173.781Z" fill="#8DB9D5" fill-opacity="0.2"/>
<path d="M78.9531 63.86C87.6867 51.1197 108.136 36.8196 119.061 31.2429C156.271 12.2684 191.859 16.834 211.993 28.9487C229.989 39.7622 244.136 56.5876 241.674 80.3908C239.207 104.267 223.615 121.781 208.531 128.432C189.668 136.757 170.467 136.525 154.524 130.373C145.053 126.723 127.857 117.886 119.332 101.496L151.6 83.9726C163.569 109.821 194.694 112.124 207.615 107.526C214.157 105.196 233.962 97.4066 235.708 73.6216C236.864 57.8525 225.81 43.0584 209.557 36.3617C186.432 26.8404 160.098 34.4483 144.746 46.7853C132.519 56.6103 125.577 65.0978 110.794 87.7357L78.9531 63.86ZM160.12 69.7088C159.4 86.9197 179.467 100.168 197.646 99.5829C224.895 98.7079 230.104 78.6859 229.891 70.1532C229.468 53.1146 212.567 42.7546 197.401 41.7389C173.552 40.1385 160.836 52.5478 160.12 69.7088Z" fill="#8DB9D5" fill-opacity="0.2"/>
</svg>
