<svg width="139" height="118" viewBox="0 0 139 118" fill="none" xmlns="http://www.w3.org/2000/svg">
<path fill-rule="evenodd" clip-rule="evenodd" d="M22.2512 34.6931C26.0325 30.1962 30.1967 26.032 34.6936 22.2508C40.5626 27.2769 49.1898 28.3262 56.2622 24.2429C63.3424 20.1552 66.747 12.1461 65.3166 4.54285C70.7786 2.55781 76.4592 1.02822 82.3125 0C84.8782 7.29451 91.8287 12.5235 100 12.5235C108.172 12.5235 115.122 7.29454 117.688 7.64348e-05C123.541 1.02833 129.222 2.55795 134.684 4.54302C133.254 12.1462 136.658 20.1554 143.739 24.2431C150.811 28.3264 159.438 27.2771 165.307 22.2511C169.804 26.0323 173.968 30.1964 177.749 34.6933C172.723 40.5623 171.674 49.1893 175.757 56.2616C179.845 63.3416 187.854 66.7463 195.457 65.316C197.442 70.7781 198.972 76.4588 200 82.3122C192.706 84.8779 187.477 91.8283 187.477 100C187.477 108.172 192.706 115.122 200 117.688C198.972 123.541 197.442 129.222 195.457 134.684C187.854 133.254 179.845 136.658 175.757 143.738C171.674 150.811 172.723 159.438 177.749 165.307C173.968 169.803 169.804 173.968 165.307 177.749C159.438 172.723 150.811 171.674 143.739 175.757C136.659 179.844 133.254 187.854 134.685 195.457C129.222 197.442 123.542 198.972 117.688 200C115.122 192.705 108.172 187.477 100 187.477C91.8285 187.477 84.8781 192.705 82.3124 200C76.459 198.972 70.7784 197.442 65.3163 195.457C66.7468 187.854 63.3422 179.845 56.262 175.757C49.1896 171.674 40.5623 172.723 34.6933 177.749C30.1965 173.968 26.0323 169.804 22.2511 165.307C27.2773 159.438 28.3266 150.811 24.2433 143.738C20.1556 136.658 12.1463 133.253 4.54303 134.684C2.55797 129.222 1.02836 123.541 0.00012207 117.688C7.29458 115.122 12.5235 108.172 12.5235 100C12.5235 91.8283 7.29459 84.878 0.00012504 82.3122C1.02838 76.4588 2.55801 70.7781 4.5431 65.316C12.1464 66.7465 20.1556 63.3419 24.2434 56.2617C28.3266 49.1893 27.2773 40.5621 22.2512 34.6931ZM100.781 149.987C127.957 149.987 149.987 127.957 149.987 100.781C149.987 73.6056 127.957 51.5756 100.781 51.5756C73.6057 51.5756 51.5756 73.6056 51.5756 100.781C51.5756 127.957 73.6057 149.987 100.781 149.987Z" fill="#D1E7F3" fill-opacity="0.3"/>
</svg>
