<svg width="173" height="118" viewBox="0 0 173 118" fill="none" xmlns="http://www.w3.org/2000/svg">
<path fill-rule="evenodd" clip-rule="evenodd" d="M-4.74876 34.6931C-0.967535 30.1962 3.19666 26.032 7.69358 22.2508C13.5626 27.2769 22.1898 28.3262 29.2622 24.2429C36.3424 20.1552 39.747 12.1461 38.3166 4.54285C43.7786 2.55781 49.4592 1.02822 55.3125 0C57.8782 7.29451 64.8287 12.5235 73.0004 12.5235C81.172 12.5235 88.1224 7.29454 90.6881 7.64348e-05C96.5415 1.02833 102.222 2.55795 107.684 4.54302C106.254 12.1462 109.658 20.1554 116.739 24.2431C123.811 28.3264 132.438 27.2771 138.307 22.2511C142.804 26.0323 146.968 30.1964 150.749 34.6933C145.723 40.5623 144.674 49.1893 148.757 56.2616C152.845 63.3416 160.854 66.7463 168.457 65.316C170.442 70.7781 171.972 76.4588 173 82.3122C165.706 84.8779 160.477 91.8283 160.477 100C160.477 108.172 165.706 115.122 173 117.688C171.972 123.541 170.442 129.222 168.457 134.684C160.854 133.254 152.845 136.658 148.757 143.738C144.674 150.811 145.723 159.438 150.749 165.307C146.968 169.803 142.804 173.968 138.307 177.749C132.438 172.723 123.811 171.674 116.739 175.757C109.659 179.844 106.254 187.854 107.685 195.457C102.222 197.442 96.5415 198.972 90.688 200C88.1223 192.705 81.1719 187.477 73.0002 187.477C64.8285 187.477 57.8781 192.705 55.3124 200C49.459 198.972 43.7784 197.442 38.3163 195.457C39.7468 187.854 36.3422 179.845 29.262 175.757C22.1896 171.674 13.5623 172.723 7.69334 177.749C3.19647 173.968 -0.967676 169.804 -4.74885 165.307C0.277306 159.438 1.3266 150.811 -2.75667 143.738C-6.84445 136.658 -14.8537 133.253 -22.457 134.684C-24.442 129.222 -25.9716 123.541 -26.9999 117.688C-19.7054 115.122 -14.4765 108.172 -14.4765 100C-14.4765 91.8283 -19.7054 84.878 -26.9999 82.3122C-25.9716 76.4588 -24.442 70.7781 -22.4569 65.316C-14.8536 66.7465 -6.84442 63.3419 -2.75665 56.2617C1.32659 49.1893 0.277327 40.5621 -4.74876 34.6931ZM73.7811 149.987C100.957 149.987 122.987 127.957 122.987 100.781C122.987 73.6056 100.957 51.5756 73.7811 51.5756C46.6057 51.5756 24.5756 73.6056 24.5756 100.781C24.5756 127.957 46.6057 149.987 73.7811 149.987Z" fill="#D1E7F3" fill-opacity="0.3"/>
</svg>
