<svg width="356" height="356" viewBox="0 0 356 356" fill="none" xmlns="http://www.w3.org/2000/svg">
<path fill-rule="evenodd" clip-rule="evenodd" d="M39.6072 61.7536C46.3377 53.7492 53.75 46.337 61.7544 39.6065C72.2013 48.553 87.5578 50.4208 100.147 43.1526C112.749 35.8764 118.81 21.62 116.263 8.08623C125.986 4.55288 136.097 1.83023 146.516 0C151.083 12.9842 163.455 22.2918 178 22.2918C192.546 22.2918 204.918 12.9843 209.485 0.00010818C219.904 1.8304 230.015 4.55313 239.738 8.08656C237.192 21.6202 243.252 35.8764 255.855 43.1525C268.443 50.4206 283.799 48.553 294.246 39.6068C302.251 46.3374 309.663 53.7496 316.393 61.7541C307.447 72.2009 305.58 87.5571 312.848 100.146C320.124 112.748 334.38 118.809 347.914 116.263C351.447 125.985 354.17 136.097 356 146.516C343.016 151.083 333.709 163.454 333.709 178C333.709 192.545 343.016 204.917 356 209.484C354.17 219.903 351.447 230.015 347.914 239.737C334.38 237.191 320.124 243.251 312.848 255.854C305.579 268.443 307.447 283.799 316.393 294.246C309.663 302.25 302.251 309.662 294.247 316.393C283.8 307.447 268.444 305.579 255.855 312.847C243.253 320.123 237.192 334.379 239.739 347.913C230.016 351.447 219.904 354.17 209.485 356C204.918 343.016 192.546 333.708 178 333.708C163.455 333.708 151.083 343.016 146.516 356C136.097 354.17 125.985 351.447 116.263 347.914C118.809 334.38 112.749 320.123 100.146 312.847C87.5573 305.579 72.2008 307.447 61.7539 316.393C53.7496 309.663 46.3375 302.251 39.6071 294.246C48.5536 283.799 50.4214 268.443 43.1531 255.854C35.8769 243.251 21.6204 237.191 8.08656 239.737C4.55312 230.015 1.8304 219.903 0.00012207 209.484C12.9843 204.917 22.2918 192.546 22.2918 178C22.2918 163.454 12.9843 151.083 0.000135622 146.516C1.83044 136.097 4.5532 125.985 8.0867 116.262C21.6205 118.809 35.8768 112.748 43.153 100.146C50.4211 87.5568 48.5535 72.2004 39.6072 61.7536ZM178 283.687C236.369 283.687 283.687 236.37 283.687 178C283.687 119.63 236.369 72.3125 178 72.3125C119.63 72.3125 72.3124 119.63 72.3124 178C72.3124 236.37 119.63 283.687 178 283.687Z" fill="#8DB9D5" fill-opacity="0.2"/>
<path d="M86.2186 163.651C95.7559 149.738 118.087 134.122 130.017 128.032C170.652 107.311 209.514 112.297 231.502 125.527C251.153 137.335 266.602 155.709 263.914 181.703C261.22 207.776 244.193 226.902 227.721 234.165C207.121 243.256 186.154 243.003 168.744 236.284C158.401 232.299 139.623 222.649 130.314 204.75L165.55 185.614C178.621 213.841 212.611 216.356 226.72 211.336C233.865 208.791 255.492 200.284 257.399 174.311C258.661 157.09 246.59 140.935 228.842 133.622C203.588 123.224 174.831 131.532 158.066 145.005C144.714 155.734 137.133 165.002 120.99 189.724L86.2186 163.651ZM174.855 170.038C174.069 188.832 195.983 203.3 215.834 202.661C245.591 201.705 251.279 179.841 251.047 170.523C250.585 151.917 232.128 140.603 215.567 139.494C189.522 137.746 175.636 151.298 174.855 170.038Z" fill="#8DB9D5" fill-opacity="0.2"/>
</svg>
