<svg width="139" height="138" viewBox="0 0 139 138" fill="none" xmlns="http://www.w3.org/2000/svg">
<path fill-rule="evenodd" clip-rule="evenodd" d="M15.6869 23.9386C18.2962 20.8355 21.1697 17.9621 24.2729 15.3529C28.3225 18.8212 34.2755 19.5453 39.1555 16.7278C44.0409 13.9072 46.3901 8.3809 45.4031 3.13468C49.1717 1.76512 53.0912 0.709811 57.1299 0.000411987C58.9002 5.03367 63.696 8.6417 69.3345 8.6417C74.9729 8.6417 79.7686 5.03383 81.539 0.00074696C85.578 0.710317 89.4977 1.76586 93.2667 3.13568C92.2799 8.38177 94.6291 13.9078 99.5143 16.7283C104.394 19.5456 110.346 18.8218 114.396 15.3544C117.499 17.9633 120.372 20.8365 122.981 23.9392C119.513 27.9888 118.789 33.9411 121.607 38.8207C124.427 43.7057 129.953 46.0549 135.199 45.0684C136.568 48.8373 137.624 52.757 138.333 56.7958C133.3 58.5662 129.692 63.362 129.692 69.0004C129.692 74.6388 133.3 79.4345 138.334 81.2049C137.624 85.2443 136.568 89.1645 135.198 92.9338C129.952 91.9471 124.426 94.2963 121.606 99.1814C118.789 104.061 119.512 110.013 122.98 114.063C120.371 117.165 117.498 120.038 114.395 122.647C110.346 119.18 104.393 118.456 99.5136 121.273C94.6284 124.094 92.2792 129.62 93.266 134.866C89.497 136.235 85.5771 137.291 81.5381 138.001C79.7679 132.967 74.972 129.359 69.3333 129.359C63.6947 129.359 58.8988 132.967 57.1286 138C53.0902 137.291 49.1708 136.236 45.4023 134.866C46.3895 129.62 44.0403 124.093 39.1549 121.273C34.2748 118.455 28.3218 119.179 24.2722 122.648C21.1693 120.039 18.2961 117.165 15.6871 114.063C19.1555 110.013 19.8797 104.06 17.0621 99.1798C14.2414 94.2942 8.71463 91.945 3.46813 92.9324C2.09842 89.1636 1.04298 85.2439 0.333492 81.205C5.36676 79.4347 8.97479 74.6389 8.97479 69.0004C8.97479 63.3619 5.36678 58.5661 0.333542 56.7958C1.04303 52.7571 2.09845 48.8375 3.46813 45.0687C8.71453 46.056 14.2411 43.7068 17.0618 38.8213C19.8793 33.9412 19.1552 27.9882 15.6869 23.9386ZM69.8718 103.491C88.6229 103.491 103.824 88.2905 103.824 69.5394C103.824 50.7883 88.6229 35.5876 69.8718 35.5876C51.1208 35.5876 35.92 50.7883 35.92 69.5394C35.92 88.2905 51.1208 103.491 69.8718 103.491Z" fill="#D1E7F3" fill-opacity="0.3"/>
</svg>
