<svg 
          width="40" 
          height="39.79399490356445" fill="none" 
          xmlns="http://www.w3.org/2000/svg">
          <path d="M 20 0 C 8.954000473022461 0 0 8.95399961468195 0 19.99999808277761 C 0 30.025997144562204 7.386000633239746 38.30599524933841 17.010000228881836 39.75199509069607 L 17.010000228881836 25.299996811774296 L 12.062000274658203 25.299996811774296 L 12.062000274658203 20.04199789564599 L 17.010000228881836 20.04199789564599 L 17.010000228881836 16.543999039683932 C 17.010000228881836 10.751999778016987 19.83199977874756 8.209999251127178 24.645999908447266 8.209999251127178 C 26.95199990272522 8.209999251127178 28.170001089572906 8.379999378179944 28.748001098632812 8.457999372312102 L 28.748001098632812 13.04599827637342 L 25.464000701904297 13.04599827637342 C 23.420000791549683 13.04599827637342 22.70599937438965 14.983997815936393 22.70599937438965 17.167997621834495 L 22.70599937438965 20.04199789564599 L 28.695999145507812 20.04199789564599 L 27.884000778198242 25.299996811774296 L 22.70800018310547 25.299996811774296 L 22.70800018310547 39.79399490356445 C 32.47000026702881 38.471995003589974 40 30.123996707921762 40 19.99999808277761 C 40 8.95399961468195 31.04599952697754 0 20 0 Z" fill="rgb(30.00000011175871,111.00000098347664,165.00000536441803)"/>
        </svg>