<svg width="57" height="46" viewBox="0 0 57 46" fill="none" xmlns="http://www.w3.org/2000/svg">
<defs>
<filter id="filter0_d_413:16931" x="9.60001" y="4" width="40" height="40" filterUnits="userSpaceOnUse" color-interpolation-filters="sRGB">
<feFlood flood-opacity="0" result="BackgroundImageFix"/>
<feColorMatrix in="SourceAlpha" type="matrix" values="0 0 0 0 0 0 0 0 0 0 0 0 0 0 0 0 0 0 127 0" result="hardAlpha"/>
<feOffset dx="1" dy="1"/>
<feGaussianBlur stdDeviation="1"/>
<feColorMatrix type="matrix" values="0 0 0 0 0 0 0 0 0 0 0 0 0 0 0 0 0 0 0.2 0"/>
<feBlend mode="normal" in2="BackgroundImageFix" result="effect1_dropShadow_413:16931"/>
<feBlend mode="normal" in="SourceGraphic" in2="effect1_dropShadow_413:16931" result="shape"/>
</filter>
<clipPath id="clip0_413:16931">
<path d="M0.600006 8C0.600006 3.58172 4.18173 0 8.60001 0H48.6C53.0183 0 56.6 3.58172 56.6 8V38C56.6 42.4183 53.0183 46 48.6 46H8.60001C4.18173 46 0.600006 42.4183 0.600006 38V8Z" fill="white"/>
</clipPath>
</defs>
<g clip-path="url(#clip0_413:16931)">
<g filter="url(#filter0_d_413:16931)">
<path fill-rule="evenodd" clip-rule="evenodd" d="M36.4502 15H20.4173C16.0082 15 12.4008 18.7714 12.4008 23.381C12.4008 27.9905 16.0082 31.7619 20.4173 31.7619C22.7554 31.7619 24.8932 30.6444 26.3629 28.9683H30.4379C31.9076 30.6444 34.0453 31.7619 36.3834 31.7619C40.7925 31.7619 44.3999 27.9905 44.3999 23.381C44.4667 18.7714 40.8593 15 36.4502 15ZM24.4255 24.7778H21.7534V27.5714C21.7534 28.3397 21.1521 28.9683 20.4173 28.9683C19.6825 28.9683 19.0812 28.3397 19.0812 27.5714V24.7778H16.4091C15.6742 24.7778 15.073 24.1492 15.073 23.381C15.073 22.6127 15.6742 21.9841 16.4091 21.9841H19.0812V19.1905C19.0812 18.4222 19.6825 17.7937 20.4173 17.7937C21.1521 17.7937 21.7534 18.4222 21.7534 19.1905V21.9841H24.4255C25.1604 21.9841 25.7616 22.6127 25.7616 23.381C25.7616 24.1492 25.1604 24.7778 24.4255 24.7778ZM32.442 24.7778C31.7072 24.7778 31.1059 24.1492 31.1059 23.381C31.1059 22.6127 31.7072 21.9841 32.442 21.9841C33.1768 21.9841 33.7781 22.6127 33.7781 23.381C33.7781 24.1492 33.1768 24.7778 32.442 24.7778ZM36.4502 28.9683C35.7154 28.9683 35.1142 28.3397 35.1142 27.5714C35.1142 26.8032 35.7154 26.1746 36.4502 26.1746C37.1851 26.1746 37.7863 26.8032 37.7863 27.5714C37.7863 28.3397 37.1851 28.9683 36.4502 28.9683ZM36.4502 20.5873C35.7154 20.5873 35.1142 19.9587 35.1142 19.1905C35.1142 18.4222 35.7154 17.7937 36.4502 17.7937C37.1851 17.7937 37.7863 18.4222 37.7863 19.1905C37.7863 19.9587 37.1851 20.5873 36.4502 20.5873ZM40.4585 24.7778C39.7236 24.7778 39.1224 24.1492 39.1224 23.381C39.1224 22.6127 39.7236 21.9841 40.4585 21.9841C41.1933 21.9841 41.7945 22.6127 41.7945 23.381C41.7945 24.1492 41.1933 24.7778 40.4585 24.7778Z" fill="#E9F1F5"/>
</g>
</g>
</svg>
