<svg width="60" height="49" viewBox="0 0 60 49" fill="none" xmlns="http://www.w3.org/2000/svg">
<defs>
<filter id="filter0_d_413:16917" x="0" y="0" width="60" height="50" filterUnits="userSpaceOnUse" color-interpolation-filters="sRGB">
<feFlood flood-opacity="0" result="BackgroundImageFix"/>
<feColorMatrix in="SourceAlpha" type="matrix" values="0 0 0 0 0 0 0 0 0 0 0 0 0 0 0 0 0 0 127 0" result="hardAlpha"/>
<feOffset dx="1" dy="1"/>
<feGaussianBlur stdDeviation="1"/>
<feColorMatrix type="matrix" values="0 0 0 0 0 0 0 0 0 0 0 0 0 0 0 0 0 0 0.2 0"/>
<feBlend mode="normal" in2="BackgroundImageFix" result="effect1_dropShadow_413:16917"/>
<feBlend mode="normal" in="SourceGraphic" in2="effect1_dropShadow_413:16917" result="shape"/>
</filter>
<filter id="filter1_d_413:16917" x="10" y="5" width="40" height="40" filterUnits="userSpaceOnUse" color-interpolation-filters="sRGB">
<feFlood flood-opacity="0" result="BackgroundImageFix"/>
<feColorMatrix in="SourceAlpha" type="matrix" values="0 0 0 0 0 0 0 0 0 0 0 0 0 0 0 0 0 0 127 0" result="hardAlpha"/>
<feOffset dx="1" dy="1"/>
<feGaussianBlur stdDeviation="1"/>
<feColorMatrix type="matrix" values="0 0 0 0 0 0 0 0 0 0 0 0 0 0 0 0 0 0 0.2 0"/>
<feBlend mode="normal" in2="BackgroundImageFix" result="effect1_dropShadow_413:16917"/>
<feBlend mode="normal" in="SourceGraphic" in2="effect1_dropShadow_413:16917" result="shape"/>
</filter>
</defs>
<g filter="url(#filter0_d_413:16917)">
<path d="M1 9C1 4.58172 4.58172 1 9 1H49C53.4183 1 57 4.58172 57 9V39C57 43.4183 53.4183 47 49 47H9C4.58172 47 1 43.4183 1 39V9Z" fill="#4C8FBB"/>
<g filter="url(#filter1_d_413:16917)">
<path fill-rule="evenodd" clip-rule="evenodd" d="M43 19.6324L32.1435 10.1889C30.3211 8.60369 27.3663 8.60369 25.5438 10.1889L15 19.3604V39H25.8889V30.8815C25.8889 29.3869 27.2818 28.1753 29 28.1753C30.7182 28.1753 32.1111 29.3869 32.1111 30.8815V39H43V19.6324ZM27.7437 12.1025L18.1111 20.4813V36.2938H22.7778V30.8815C22.7778 27.8923 25.5636 25.4691 29 25.4691C32.4365 25.4691 35.2222 27.8923 35.2222 30.8815V36.2938H39.8889V20.7533L29.9436 12.1025C29.3361 11.5741 28.3512 11.5741 27.7437 12.1025Z" fill="#E9F1F5"/>
</g>
</g>
</svg>
