<svg width="28" height="30" viewBox="0 0 28 30" fill="none" xmlns="http://www.w3.org/2000/svg">
<path fill-rule="evenodd" clip-rule="evenodd" d="M28 10.6324L17.1435 1.18893C15.3211 -0.39631 12.3663 -0.396311 10.5438 1.18893L1.52588e-05 10.3604V30H10.8889V21.8815C10.8889 20.3869 12.2818 19.1753 14 19.1753C15.7182 19.1753 17.1111 20.3869 17.1111 21.8815V30H28V10.6324ZM12.7437 3.10249L3.11113 11.4813V27.2938H7.77779V21.8815C7.77779 18.8923 10.5636 16.4691 14 16.4691C17.4365 16.4691 20.2222 18.8923 20.2222 21.8815V27.2938H24.8889V11.7533L14.9436 3.10249C14.3361 2.57407 13.3512 2.57407 12.7437 3.10249Z" fill="#E9F1F5"/>
</svg>
