<svg width="139" height="138" viewBox="0 0 139 138" fill="none" xmlns="http://www.w3.org/2000/svg">
<defs>
<filter id="filter0_d_413:13506" x="49.3356" y="47.4251" width="45.2703" height="45.3004" filterUnits="userSpaceOnUse" color-interpolation-filters="sRGB">
<feFlood flood-opacity="0" result="BackgroundImageFix"/>
<feColorMatrix in="SourceAlpha" type="matrix" values="0 0 0 0 0 0 0 0 0 0 0 0 0 0 0 0 0 0 127 0" result="hardAlpha"/>
<feOffset dx="1.07812" dy="1.07812"/>
<feGaussianBlur stdDeviation="1.07812"/>
<feColorMatrix type="matrix" values="0 0 0 0 0.0196078 0 0 0 0 0.27451 0 0 0 0 0.447059 0 0 0 1 0"/>
<feBlend mode="normal" in2="BackgroundImageFix" result="effect1_dropShadow_413:13506"/>
<feBlend mode="normal" in="SourceGraphic" in2="effect1_dropShadow_413:13506" result="shape"/>
</filter>
<radialGradient id="paint0_radial_413:13506" cx="0" cy="0" r="1" gradientUnits="userSpaceOnUse" gradientTransform="translate(69.834 69.0006) rotate(90) scale(70.0593)">
<stop offset="0.465948" stop-color="#2174AB"/>
<stop offset="1" stop-color="#003D67"/>
</radialGradient>
</defs>
<path fill-rule="evenodd" clip-rule="evenodd" d="M24.772 15.354C21.6691 17.9631 18.7958 20.8364 16.1868 23.9394C19.6546 27.9889 20.3785 33.9416 17.5611 38.8214C14.7407 43.7066 9.21459 46.0557 3.96851 45.069C2.59889 48.8376 1.54351 52.7571 0.834034 56.7957C5.86759 58.5658 9.47589 63.3618 9.47589 69.0005C9.47589 74.6392 5.86757 79.4352 0.834 81.2053C1.54353 85.2443 2.59903 89.1641 3.96882 92.9331C9.21515 91.946 14.7416 94.2951 17.5623 99.1806C20.3797 104.061 19.6557 110.013 16.1877 114.063C18.7965 117.165 21.6695 120.038 24.7721 122.647C28.8217 119.18 34.7742 118.456 39.654 121.273C44.5392 124.094 46.8884 129.62 45.9016 134.866C49.6705 136.236 53.5902 137.291 57.6291 138.001C59.3994 132.967 64.1952 129.359 69.8339 129.359C75.4725 129.359 80.2684 132.967 82.0386 138.001C86.0774 137.291 89.9971 136.236 93.7659 134.866C92.7791 129.62 95.1283 124.094 100.014 121.273C104.893 118.456 110.846 119.18 114.895 122.648C117.998 120.039 120.871 117.166 123.48 114.063C120.012 110.013 119.288 104.061 122.106 99.1807C124.926 94.2954 130.453 91.9462 135.699 92.9332C137.069 89.1642 138.124 85.2443 138.834 81.2052C133.801 79.4349 130.193 74.6391 130.193 69.0007C130.193 63.3622 133.801 58.5664 138.834 56.7961C138.124 52.7574 137.069 48.8378 135.699 45.069C130.453 46.0559 124.927 43.7067 122.107 38.8215C119.289 33.9416 120.013 27.9889 123.481 23.9393C120.872 20.8363 117.999 17.9629 114.896 15.3537C110.846 18.8217 104.893 19.5457 100.013 16.7283C95.1279 13.9077 92.7787 8.38141 93.7657 3.13519C89.9969 1.76552 86.0773 0.710112 82.0386 0.000633012C80.2682 5.03373 75.4725 8.64161 69.8341 8.64161C64.1957 8.64161 59.3999 5.03371 57.6296 0.000595093C53.5906 0.710092 49.6709 1.76555 45.902 3.13529C46.8891 8.38163 44.5399 13.9081 39.6545 16.7287C34.7745 19.5462 28.8216 18.8222 24.772 15.354Z" fill="url(#paint0_radial_413:13506)"/>
<circle cx="70.3538" cy="69.5204" r="33.9518" fill="#83B8CC"/>
<path d="M40.4261 41.0996C40.4562 41.1266 40.4763 41.1629 40.483 41.2028C40.4838 41.2555 40.4728 41.3077 40.451 41.3557C40.4149 41.4336 40.3708 41.5076 40.3194 41.5763C40.2553 41.6616 40.17 41.7648 40.0668 41.8821C39.9637 41.9995 39.8676 42.0956 39.7894 42.1702C39.728 42.2285 39.6613 42.2808 39.5902 42.3267C39.5463 42.3538 39.4959 42.3685 39.4444 42.3694C39.4047 42.3661 39.3672 42.3499 39.3377 42.3232L36.1365 39.4777C36.0156 39.371 35.8982 39.2607 35.7808 39.154L35.482 38.8659C35.5034 38.9299 35.5283 39.0046 35.5532 39.09C35.5781 39.1754 35.6101 39.2679 35.6385 39.3639L35.7239 39.6627C35.7524 39.7658 35.7772 39.8654 35.8021 39.965L37.0684 44.8557C37.0822 44.9067 37.0894 44.9593 37.0897 45.0122C37.0887 45.0647 37.0779 45.1166 37.0577 45.1651C37.0277 45.2283 36.9907 45.288 36.9475 45.343C36.8977 45.4105 36.8301 45.4888 36.7447 45.5848C36.6595 45.6854 36.568 45.7804 36.4708 45.8694C36.4131 45.9242 36.3499 45.9731 36.2823 46.0152C36.2447 46.0415 36.1989 46.0534 36.1532 46.0489C36.1075 46.0443 36.065 46.0235 36.0333 45.9903L30.3246 40.9289C30.2937 40.9026 30.2735 40.8659 30.2677 40.8258C30.2663 40.7726 30.2786 40.7199 30.3032 40.6728C30.3385 40.5945 30.3826 40.5205 30.4348 40.4523C30.4953 40.3669 30.5807 40.2638 30.6838 40.1464C30.787 40.029 30.8866 39.9294 30.9613 39.8583C31.0231 39.7991 31.0911 39.7466 31.164 39.7018C31.2072 39.6728 31.2578 39.6568 31.3098 39.6555C31.3495 39.6588 31.387 39.6751 31.4165 39.7018L34.6177 42.5473C34.7173 42.6362 34.824 42.7287 34.9307 42.8318L35.2473 43.1377C35.201 43.0026 35.1477 42.8354 35.0908 42.6398C35.0339 42.4441 34.977 42.2449 34.9307 42.0458L33.6751 37.148C33.6642 37.1013 33.6582 37.0536 33.6574 37.0057C33.6554 36.9532 33.6652 36.901 33.6858 36.8527C33.7136 36.7869 33.7494 36.7248 33.7925 36.6678C33.8423 36.6014 33.9099 36.5196 33.9953 36.4224C34.0806 36.3251 34.1695 36.2327 34.262 36.1449C34.3205 36.0894 34.3849 36.0405 34.4541 35.9991C34.4957 35.9732 34.5438 35.9597 34.5928 35.96C34.6345 35.965 34.6733 35.9838 34.7031 36.0133L40.4261 41.0996Z" fill="white"/>
<path d="M44.1753 35.3196C44.4145 35.6046 44.5827 35.9423 44.6662 36.3048C44.74 36.6435 44.7302 36.9951 44.6377 37.3292C44.5328 37.6943 44.3589 38.036 44.1255 38.3358C43.8533 38.6902 43.5378 39.0093 43.1865 39.2855C42.9971 39.4383 42.7961 39.5763 42.5854 39.6981C42.4106 39.7959 42.2287 39.8803 42.0412 39.9506C41.9086 39.9945 41.7731 40.029 41.6357 40.0538C41.5538 40.0708 41.4704 40.0803 41.3867 40.0822C41.338 40.0814 41.2898 40.0718 41.2445 40.0538C41.1933 40.0311 41.1464 39.9998 41.1057 39.9613C41.0405 39.9033 40.9788 39.8415 40.9208 39.7763C40.8532 39.6981 40.7678 39.5985 40.6718 39.4776C40.5916 39.3887 40.5299 39.2847 40.4904 39.1717C40.4824 39.1432 40.4832 39.1131 40.4928 39.0851C40.5023 39.0572 40.5201 39.0328 40.5438 39.0152C40.6077 38.9737 40.6811 38.9492 40.7572 38.944C40.8639 38.9262 40.9919 38.9013 41.1413 38.8658C41.3099 38.8233 41.4751 38.7686 41.6357 38.7022C41.8508 38.6016 42.0527 38.475 42.2368 38.3251C42.4007 38.1968 42.5457 38.046 42.6672 37.877C42.7693 37.7356 42.8441 37.5763 42.8877 37.4075C42.9221 37.254 42.9221 37.0949 42.8877 36.9415C42.863 36.7805 42.7995 36.628 42.7028 36.4969C42.5967 36.3588 42.4636 36.2439 42.3115 36.159C42.1648 36.082 42.0004 36.0452 41.8349 36.0523C41.6419 36.0614 41.4523 36.1073 41.2765 36.1875C41.0443 36.296 40.8268 36.4335 40.6291 36.5965L39.9604 37.13C39.9218 37.1633 39.8771 37.1886 39.8288 37.2047C39.7842 37.2143 39.7377 37.208 39.6972 37.1869C39.6391 37.1566 39.5872 37.1155 39.5443 37.066C39.4909 37.0055 39.4198 36.9237 39.338 36.8206C39.2749 36.7437 39.2167 36.6629 39.1637 36.5787C39.1265 36.5263 39.0999 36.4671 39.0854 36.4044C39.0708 36.363 39.0708 36.3178 39.0854 36.2764C39.1028 36.2352 39.1311 36.1995 39.1673 36.1732L39.8573 35.6468C40.0364 35.507 40.1976 35.3457 40.3375 35.1666C40.4472 35.0245 40.5259 34.8609 40.5687 34.6865C40.6059 34.5334 40.6059 34.3736 40.5687 34.2205C40.5301 34.0603 40.4559 33.9107 40.3517 33.783C40.2645 33.6729 40.1585 33.5789 40.0387 33.5056C39.9301 33.4422 39.8084 33.4045 39.683 33.3953C39.538 33.3951 39.3942 33.4229 39.2597 33.4771C39.0894 33.5506 38.9301 33.6476 38.7867 33.7652C38.6069 33.9044 38.4466 34.0671 38.3101 34.249C38.1987 34.3952 38.0988 34.5497 38.0113 34.7114C37.933 34.8536 37.8726 34.9781 37.8263 35.0848C37.801 35.1632 37.7585 35.2349 37.7018 35.2947C37.6808 35.3119 37.6543 35.3208 37.6271 35.3196C37.5913 35.3169 37.5569 35.3046 37.5275 35.284C37.4773 35.2499 37.4308 35.2105 37.3888 35.1666C37.339 35.1133 37.275 35.0386 37.2003 34.9426C37.1256 34.8465 37.1007 34.8145 37.058 34.7576C37.0204 34.7046 36.9871 34.6487 36.9584 34.5904C36.9329 34.5434 36.9138 34.4931 36.9015 34.441C36.8926 34.3881 36.8926 34.334 36.9015 34.281C36.9231 34.1781 36.959 34.0787 37.0082 33.9858C37.0873 33.827 37.1789 33.6748 37.2821 33.5305C37.4186 33.3476 37.5659 33.173 37.7232 33.0076C37.9003 32.8179 38.0904 32.6408 38.2923 32.4777C38.5879 32.2324 38.9158 32.029 39.2668 31.873C39.5447 31.7489 39.8447 31.6824 40.1489 31.6774C40.4196 31.6776 40.686 31.7448 40.9243 31.873C41.1856 32.0155 41.4135 32.2119 41.593 32.4492C41.7445 32.6348 41.8646 32.8438 41.9487 33.0681C42.0259 33.2689 42.0645 33.4825 42.0625 33.6977C42.0629 33.9066 42.0255 34.1138 41.9523 34.3094C41.8785 34.5137 41.7703 34.7038 41.6322 34.8714V34.8714C41.8389 34.7406 42.068 34.649 42.308 34.6011C42.5348 34.5585 42.7676 34.5585 42.9944 34.6011C43.2193 34.6415 43.435 34.7222 43.6311 34.8394C43.8404 34.9647 44.0249 35.1275 44.1753 35.3196Z" fill="white"/>
<path d="M51.0326 29.3125C51.3308 29.8436 51.5467 30.4168 51.6728 31.0127C51.7834 31.5201 51.7834 32.0454 51.6728 32.5528C51.5555 33.0404 51.3252 33.4937 51.0006 33.876C50.6268 34.315 50.1714 34.6773 49.6596 34.943C49.1741 35.2203 48.6449 35.4128 48.0946 35.5121C47.6297 35.5936 47.1517 35.5582 46.7039 35.409C46.2363 35.2426 45.8137 34.9699 45.4697 34.6122C45.0353 34.1626 44.6687 33.6522 44.3813 33.097C44.0886 32.5766 43.8786 32.0138 43.7588 31.4288C43.6558 30.9236 43.6618 30.4021 43.7766 29.8994C43.8948 29.411 44.1249 28.9568 44.4488 28.5727C44.8253 28.135 45.2816 27.7728 45.7933 27.5056C46.2694 27.234 46.7875 27.0441 47.3263 26.9436C47.7907 26.8598 48.2686 26.8928 48.7171 27.0397C49.1832 27.2059 49.6062 27.4745 49.9549 27.8257C50.3873 28.2639 50.7507 28.7652 51.0326 29.3125ZM49.56 30.2124C49.3775 29.8694 49.1631 29.5443 48.9198 29.2414C48.7236 28.9904 48.4823 28.7781 48.2084 28.6154C47.9523 28.4763 47.6639 28.4076 47.3726 28.4162C47.0291 28.4397 46.6956 28.5419 46.398 28.715C46.0781 28.8652 45.8024 29.0956 45.5977 29.3836C45.4333 29.639 45.3344 29.931 45.3096 30.2337C45.2871 30.5561 45.327 30.8797 45.427 31.187C45.5337 31.5325 45.6755 31.8662 45.8502 32.1829C46.0363 32.536 46.2555 32.8706 46.5047 33.1824C46.7061 33.4371 46.9534 33.6518 47.2339 33.8155C47.4876 33.9574 47.7757 34.0263 48.0662 34.0147C48.4116 33.9877 48.7462 33.8818 49.0443 33.7052C49.3529 33.5512 49.6182 33.3225 49.8161 33.0401C49.9826 32.7846 50.0806 32.4907 50.1007 32.1864C50.1236 31.8615 50.0825 31.5352 49.9798 31.2261C49.8735 30.8752 49.7329 30.5357 49.56 30.2124Z" fill="white"/>
<path d="M59.0637 28.3735C59.174 28.6982 59.2175 29.0418 59.1918 29.3837C59.163 29.7105 59.0609 30.0266 58.893 30.3084C58.6982 30.6205 58.4401 30.8883 58.1354 31.0945C57.7124 31.377 57.248 31.5918 56.7589 31.7312L54.7279 32.3785C54.6626 32.4079 54.5914 32.4217 54.5198 32.4189C54.4482 32.416 54.3783 32.3966 54.3156 32.3621C54.2528 32.3276 54.1989 32.279 54.1581 32.2201C54.1173 32.1613 54.0908 32.0937 54.0806 32.0228L51.95 25.3253C51.9195 25.2595 51.9036 25.1879 51.9036 25.1154C51.9036 25.0429 51.9195 24.9713 51.95 24.9056C52.0184 24.7987 52.1233 24.7203 52.2452 24.685L56.6059 23.2943C56.6431 23.2836 56.6826 23.2836 56.7198 23.2943C56.7622 23.3113 56.8 23.3381 56.83 23.3726C56.8751 23.4263 56.9122 23.4862 56.9403 23.5504C56.9735 23.6263 57.0091 23.7223 57.047 23.8385C57.0776 23.933 57.1026 24.0292 57.1217 24.1266C57.1317 24.195 57.1317 24.2645 57.1217 24.3329C57.1178 24.3795 57.1032 24.4245 57.079 24.4645C57.057 24.4949 57.0258 24.5173 56.9901 24.5285L53.7249 25.5707L54.3367 27.4878L55.6171 27.0788C56.0285 26.9391 56.4568 26.8554 56.8905 26.8298C57.2149 26.819 57.5381 26.8747 57.8402 26.9934C58.1213 27.1092 58.372 27.2881 58.5729 27.5163C58.7964 27.7633 58.9639 28.0557 59.0637 28.3735V28.3735ZM57.5058 28.9817C57.4619 28.8239 57.3869 28.6764 57.2853 28.5478C57.1903 28.4294 57.0684 28.3355 56.9296 28.2739C56.7776 28.2065 56.6121 28.1749 56.4459 28.1814C56.2032 28.1923 55.9635 28.239 55.7345 28.3202L54.7279 28.6403L55.4393 30.8633L56.4637 30.5361C56.6771 30.4737 56.8807 30.3815 57.0683 30.2622C57.2128 30.1727 57.3345 30.051 57.424 29.9065C57.5059 29.7747 57.5581 29.6266 57.577 29.4726C57.5883 29.3058 57.564 29.1385 57.5058 28.9817V28.9817Z" fill="white"/>
<path d="M65.6122 24.2015C65.6771 24.6081 65.6638 25.0234 65.5731 25.4251C65.4889 25.7803 65.3219 26.1106 65.0858 26.389C64.8343 26.6773 64.5254 26.9099 64.1788 27.0719C63.7508 27.2689 63.2948 27.3985 62.8272 27.456L62.1585 27.5521L62.5142 30.1094C62.5211 30.1499 62.5135 30.1914 62.4928 30.2268C62.4594 30.269 62.4169 30.3031 62.3684 30.3264C62.2915 30.3617 62.2118 30.3902 62.13 30.4118C62.0269 30.4367 61.8989 30.4616 61.7352 30.4865C61.6045 30.5067 61.4727 30.5186 61.3404 30.522C61.2553 30.5301 61.1695 30.5301 61.0843 30.522C61.0313 30.5162 60.9815 30.4938 60.9421 30.458C60.9141 30.43 60.8954 30.3939 60.8887 30.3549L59.8608 23.138C59.8437 23.0601 59.8427 22.9794 59.858 22.9011C59.8733 22.8228 59.9045 22.7485 59.9497 22.6827C59.9963 22.6249 60.054 22.5769 60.1193 22.5414C60.1847 22.506 60.2564 22.4839 60.3303 22.4764L62.2154 22.2061C62.4075 22.1776 62.5711 22.1599 62.7596 22.1492C62.9693 22.1386 63.1795 22.1386 63.3892 22.1492C63.6503 22.1665 63.9077 22.2204 64.1539 22.3092C64.4137 22.3951 64.655 22.5291 64.8653 22.7041C65.0661 22.8817 65.2304 23.0968 65.349 23.3372C65.4845 23.6085 65.5735 23.9007 65.6122 24.2015V24.2015ZM63.9263 24.5572C63.9009 24.3158 63.8153 24.0846 63.6773 23.8849C63.5699 23.7312 63.4239 23.6086 63.254 23.5292C63.1029 23.4664 62.941 23.4338 62.7774 23.4332C62.6108 23.4329 62.4443 23.4448 62.2794 23.4688L61.5681 23.5684L61.9593 26.2858L62.6707 26.1791C62.895 26.1548 63.1124 26.0871 63.3109 25.9799C63.467 25.8944 63.6 25.7723 63.6986 25.6242C63.7943 25.4765 63.8585 25.3106 63.8871 25.1369C63.9294 24.9492 63.9426 24.7561 63.9263 24.5643V24.5572Z" fill="white"/>
<path d="M72.3742 29.181C72.3742 29.3019 72.3742 29.4015 72.3529 29.4833C72.3436 29.5501 72.3269 29.6157 72.3031 29.6789C72.2858 29.7221 72.2576 29.7601 72.2213 29.7892C72.1911 29.8103 72.155 29.8215 72.1181 29.8212L68.0562 29.7394C67.9914 29.7428 67.9265 29.7332 67.8654 29.7113C67.8044 29.6893 67.7483 29.6553 67.7005 29.6113C67.6499 29.5591 67.6115 29.4963 67.5881 29.4274C67.5647 29.3585 67.557 29.2852 67.5654 29.213L67.6792 22.1633C67.6737 22.0908 67.6838 22.0181 67.709 21.95C67.7342 21.8818 67.7737 21.8199 67.825 21.7685C67.9241 21.6852 68.0515 21.6432 68.1807 21.6511L72.2248 21.7293C72.2611 21.7296 72.2962 21.7421 72.3244 21.7649C72.3588 21.7936 72.3836 21.832 72.3956 21.8752C72.4196 21.9393 72.4351 22.0062 72.4418 22.0743C72.4418 22.155 72.4418 22.2581 72.4418 22.3838C72.4418 22.5095 72.4347 22.6091 72.4205 22.6826C72.4124 22.7497 72.3957 22.8154 72.3707 22.8782C72.3555 22.9206 72.3283 22.9577 72.2924 22.9849C72.2647 23.0082 72.2289 23.0197 72.1928 23.0169L69.3153 22.9813L69.2833 24.959L71.7269 24.9981C71.7644 24.9975 71.8009 25.0101 71.83 25.0337C71.8651 25.0616 71.8921 25.0985 71.9083 25.1404C71.9293 25.2039 71.9436 25.2695 71.951 25.336C71.951 25.4178 71.951 25.5174 71.951 25.6312C71.951 25.745 71.951 25.8517 71.9296 25.9335C71.9222 25.9984 71.9054 26.0619 71.8798 26.1221C71.8636 26.1629 71.8365 26.1986 71.8016 26.2252C71.7702 26.2433 71.7347 26.2531 71.6984 26.2537L69.2513 26.2145L69.2157 28.4945L72.1288 28.5443C72.1662 28.544 72.2027 28.5565 72.232 28.5798C72.2667 28.6089 72.2926 28.6471 72.3066 28.6901C72.3303 28.7531 72.3458 28.8188 72.3529 28.8857C72.3707 28.9569 72.3742 29.06 72.3742 29.181Z" fill="white"/>
<path d="M80.0493 23.4361C80.0354 23.5383 80.014 23.6394 79.9853 23.7385C79.9669 23.8076 79.9407 23.8745 79.907 23.9376C79.8846 23.9789 79.8514 24.0133 79.811 24.0372C79.7796 24.0582 79.7413 24.0659 79.7043 24.0586L77.7018 23.7456L76.6916 30.187C76.6873 30.2287 76.6669 30.267 76.6347 30.2937C76.5922 30.3257 76.5418 30.3453 76.4889 30.3507C76.4037 30.3588 76.318 30.3588 76.2328 30.3507C76.1004 30.3444 75.9686 30.3302 75.838 30.308C75.7063 30.2888 75.5757 30.2627 75.4467 30.2297C75.3637 30.2071 75.2827 30.1774 75.2048 30.1408C75.156 30.118 75.1142 30.0823 75.0839 30.0377C75.0626 30.0025 75.055 29.9607 75.0626 29.9203L76.0727 23.4788L74.0702 23.1658C74.0319 23.1598 73.9968 23.141 73.9706 23.1125C73.942 23.0747 73.9225 23.0309 73.9137 22.9844C73.9072 22.9146 73.9072 22.8444 73.9137 22.7745C73.9187 22.6707 73.9306 22.5674 73.9493 22.4651C73.9606 22.3633 73.9784 22.2623 74.0026 22.1628C74.0216 22.0938 74.0478 22.027 74.0809 21.9636C74.1031 21.9233 74.1348 21.8891 74.1734 21.864C74.2074 21.8468 74.2459 21.8406 74.2836 21.8462L79.9212 22.7319C79.9581 22.7368 79.992 22.7544 80.0173 22.7817C80.0473 22.8171 80.067 22.8602 80.0742 22.9062C80.0844 22.9769 80.0844 23.0488 80.0742 23.1196C80.0728 23.2255 80.0645 23.3313 80.0493 23.4361V23.4361Z" fill="white"/>
<path d="M84.4386 31.8275C84.4096 31.9242 84.3752 32.0192 84.3355 32.112C84.3069 32.1734 84.2724 32.2318 84.2323 32.2863C84.2037 32.3231 84.1656 32.3514 84.1221 32.3681C84.0876 32.3806 84.0498 32.3806 84.0154 32.3681L80.1384 31.1623C80.0152 31.1296 79.9095 31.0506 79.8432 30.9418C79.8114 30.8764 79.7949 30.8047 79.7949 30.732C79.7949 30.6593 79.8114 30.5875 79.8432 30.5221L81.9559 23.7925C81.9703 23.7214 82.0004 23.6545 82.0441 23.5966C82.0878 23.5387 82.144 23.4914 82.2085 23.4582C82.323 23.4144 82.4497 23.4144 82.5642 23.4582L86.4198 24.6675C86.4541 24.6778 86.4841 24.699 86.5052 24.728C86.5286 24.7668 86.542 24.8108 86.5443 24.856C86.5462 24.9241 86.5402 24.9921 86.5265 25.0588C86.5075 25.1612 86.4813 25.2623 86.4483 25.3611C86.4214 25.4562 86.3869 25.549 86.3451 25.6385C86.3192 25.7013 86.2845 25.7599 86.242 25.8128C86.2144 25.8477 86.179 25.8757 86.1388 25.8946C86.1043 25.9071 86.0666 25.9071 86.0321 25.8946L83.2755 25.0268L82.6815 26.8941L85.0291 27.6233C85.0643 27.6337 85.0946 27.6564 85.1144 27.6873C85.1406 27.7237 85.1555 27.767 85.1571 27.8118C85.1672 27.8778 85.1672 27.9449 85.1571 28.011C85.1371 28.1082 85.1122 28.2044 85.0824 28.2991C85.0547 28.3955 85.019 28.4895 84.9757 28.5801C84.9497 28.6409 84.9163 28.6982 84.8761 28.7508C84.8479 28.7848 84.8111 28.8106 84.7694 28.8255C84.735 28.838 84.6972 28.838 84.6627 28.8255L82.3294 28.0928L81.6465 30.2731L84.4244 31.1446C84.4607 31.1548 84.4921 31.1774 84.5133 31.2086C84.537 31.2475 84.5516 31.2913 84.556 31.3366C84.5639 31.404 84.5639 31.472 84.556 31.5394C84.5243 31.6383 84.4851 31.7346 84.4386 31.8275V31.8275Z" fill="white"/>
<path d="M91.2214 35.5904C91.2135 35.6092 91.2019 35.6261 91.1872 35.6401C91.1725 35.6542 91.1551 35.6651 91.1361 35.6722C91.085 35.6875 91.0306 35.6875 90.9795 35.6722C90.8953 35.6596 90.8129 35.6369 90.7341 35.6047C90.6123 35.5574 90.4936 35.5028 90.3784 35.441C90.2559 35.3807 90.1371 35.313 90.0228 35.2383C89.9517 35.1923 89.8851 35.1399 89.8236 35.0818C89.7854 35.0449 89.7583 34.9981 89.7453 34.9466C89.7311 34.9088 89.7311 34.8671 89.7453 34.8293L91.2428 31.9233L88.5502 30.5361L87.0563 33.4456C87.0363 33.4805 87.0067 33.5089 86.971 33.5275C86.9209 33.5411 86.8681 33.5411 86.818 33.5275C86.7342 33.5115 86.652 33.4877 86.5726 33.4563C86.4508 33.4078 86.332 33.352 86.2169 33.2891C86.0944 33.23 85.9756 33.1635 85.8612 33.09C85.7874 33.045 85.7193 32.9913 85.6585 32.9299C85.6207 32.8935 85.5926 32.8483 85.5767 32.7983C85.5626 32.7592 85.5626 32.7164 85.5767 32.6774L89.0695 25.8838C89.0889 25.8471 89.1203 25.8183 89.1584 25.802C89.2095 25.7865 89.2639 25.7865 89.3149 25.802C89.3997 25.8192 89.4829 25.843 89.5639 25.8731C89.6857 25.9217 89.8045 25.9775 89.9196 26.0403C90.0421 26.0994 90.1609 26.1659 90.2753 26.2395C90.3475 26.2852 90.4143 26.3389 90.4745 26.3995C90.5137 26.4341 90.5411 26.4801 90.5527 26.5311C90.561 26.5711 90.5547 26.6128 90.5349 26.6485L89.1762 29.2877L91.8688 30.6713L93.2275 28.0321C93.2445 27.9949 93.275 27.9657 93.3128 27.9503C93.3639 27.9351 93.4183 27.9351 93.4694 27.9503C93.5531 27.9648 93.6353 27.9875 93.7148 28.0179C93.8144 28.057 93.9353 28.1104 94.0705 28.1851C94.2056 28.2597 94.323 28.3238 94.4261 28.3842C94.4973 28.43 94.564 28.4824 94.6253 28.5407C94.665 28.577 94.6934 28.624 94.7071 28.6759C94.7213 28.7137 94.7213 28.7554 94.7071 28.7933L91.2214 35.5904Z" fill="white"/>
<path d="M97.8336 40.627C97.808 40.6575 97.773 40.6788 97.734 40.6874C97.6817 40.6936 97.6287 40.685 97.5811 40.6625C97.5001 40.6326 97.4235 40.592 97.3534 40.5416C97.241 40.4699 97.1329 40.3915 97.0298 40.3069C96.9258 40.2267 96.8261 40.1413 96.731 40.0508C96.6675 39.994 96.6113 39.9294 96.5638 39.8587C96.5334 39.817 96.515 39.7678 96.5104 39.7164C96.511 39.6764 96.5247 39.6376 96.5496 39.6062L99.1994 36.2663L99.5018 35.9106C99.6049 35.7896 99.6938 35.6865 99.7756 35.5976L99.5587 35.6829L99.2919 35.7825L98.9967 35.8821L98.7015 35.9782L93.8819 37.4934C93.8307 37.5074 93.7783 37.5169 93.7254 37.5218C93.6721 37.5254 93.6186 37.5169 93.5689 37.4969C93.5039 37.472 93.4418 37.4398 93.384 37.4009C93.3164 37.3547 93.2346 37.2906 93.1314 37.2088C93.0268 37.1295 92.9271 37.044 92.8327 36.9527C92.7745 36.8987 92.7231 36.8378 92.6797 36.7713C92.6515 36.732 92.6365 36.6846 92.637 36.6362C92.6437 36.5946 92.6609 36.5555 92.6868 36.5224L97.4459 30.5291C97.4698 30.4965 97.5056 30.4748 97.5455 30.4686C97.5989 30.4628 97.653 30.4714 97.702 30.4935C97.7823 30.5248 97.8587 30.5654 97.9296 30.6144C98.0391 30.6859 98.1448 30.7631 98.2462 30.8456C98.3742 30.9452 98.4774 31.0341 98.5521 31.1053C98.6126 31.1649 98.6685 31.2291 98.7193 31.2973C98.7502 31.3401 98.7687 31.3906 98.7726 31.4432C98.7721 31.4822 98.7583 31.5198 98.7335 31.5499L96.0552 34.9111C95.9734 35.0143 95.8844 35.1245 95.7884 35.2383C95.6924 35.3522 95.5963 35.466 95.5003 35.5691C95.6319 35.5122 95.7955 35.4517 95.9912 35.3806C96.1868 35.3095 96.3788 35.249 96.5745 35.1921L101.39 33.652C101.437 33.6389 101.485 33.6305 101.533 33.6271C101.585 33.6243 101.637 33.6316 101.686 33.6484C101.754 33.6717 101.818 33.704 101.878 33.7445C101.949 33.7907 102.034 33.8512 102.137 33.933C102.241 34.0148 102.358 34.1144 102.429 34.1855C102.487 34.2399 102.538 34.3008 102.582 34.3669C102.61 34.4064 102.627 34.4534 102.628 34.5021C102.628 34.5438 102.612 34.584 102.586 34.6159L97.8336 40.627Z" fill="white"/>
<path d="M102.692 46.0542C102.663 46.0814 102.625 46.0967 102.586 46.0969C102.533 46.096 102.483 46.08 102.44 46.0506C102.368 46.0066 102.303 45.9541 102.244 45.8941C102.148 45.8017 102.056 45.7043 101.97 45.6025C101.882 45.5038 101.799 45.4005 101.721 45.293C101.669 45.2237 101.625 45.1485 101.59 45.0689C101.565 45.0221 101.555 44.9687 101.561 44.916C101.568 44.8771 101.588 44.8419 101.618 44.8164L103.905 42.8352L103.525 42.3764C103.404 42.2249 103.258 42.095 103.094 41.9923C102.968 41.9268 102.83 41.8892 102.689 41.882C102.529 41.8733 102.37 41.8902 102.216 41.9318C102.022 41.9819 101.832 42.0437 101.647 42.1168L99.9214 42.8032C99.8733 42.819 99.8227 42.8262 99.7721 42.8246C99.7129 42.8176 99.656 42.7982 99.6049 42.7677C99.5277 42.716 99.4562 42.6564 99.3915 42.5898C99.3132 42.5116 99.2172 42.4049 99.0998 42.2733C98.9824 42.1417 98.8828 42.01 98.8188 41.9176C98.7669 41.8485 98.7239 41.7732 98.6908 41.6935C98.6778 41.6482 98.6778 41.6001 98.6908 41.5548C98.7031 41.5245 98.7227 41.4976 98.7477 41.4765C98.7869 41.4432 98.8299 41.4146 98.8757 41.3912C98.9626 41.3506 99.0516 41.3149 99.1425 41.2844L100.74 40.7011C100.925 40.6306 101.115 40.5724 101.309 40.5268C101.472 40.4916 101.639 40.4714 101.807 40.4664C101.956 40.4619 102.105 40.4762 102.251 40.5091C102.392 40.5422 102.527 40.5948 102.653 40.6656C102.542 40.4401 102.462 40.2009 102.415 39.9542C102.32 39.5234 102.398 39.0728 102.632 38.6986C102.762 38.4918 102.923 38.3059 103.108 38.1473C103.364 37.92 103.663 37.7469 103.987 37.6387C104.292 37.5388 104.617 37.5144 104.933 37.5675C105.281 37.6311 105.614 37.7628 105.911 37.9552C106.344 38.2543 106.732 38.6136 107.064 39.0223L108.362 40.5197C108.445 40.6125 108.492 40.7327 108.493 40.8576C108.486 40.9284 108.463 40.9966 108.427 41.0579C108.39 41.1192 108.342 41.1722 108.284 41.2133L102.692 46.0542ZM106.605 40.4877L106.053 39.851C105.886 39.6419 105.689 39.4575 105.47 39.3033C105.332 39.2132 105.175 39.1549 105.011 39.1326C104.864 39.1171 104.715 39.1378 104.577 39.193C104.427 39.2556 104.288 39.3421 104.165 39.4491C104.045 39.5499 103.943 39.6701 103.862 39.8048C103.79 39.9398 103.749 40.0893 103.742 40.2423C103.741 40.4095 103.773 40.5752 103.838 40.7296C103.947 40.9575 104.091 41.1674 104.264 41.352L104.833 42.01L106.605 40.4877Z" fill="white"/>
<g filter="url(#filter0_d_413:13506)">
<path fill-rule="evenodd" clip-rule="evenodd" d="M89.2046 50.6425C87.7499 49.1878 85.6107 48.5032 83.2147 48.5032C79.6208 48.5032 75.3423 49.9579 70.8927 52.6106C66.443 49.9579 62.1645 48.5032 58.5706 48.5032C56.0891 48.5032 54.0354 49.1878 52.5807 50.6425C48.9868 54.2364 50.0137 61.4243 54.5489 68.9544C50.0137 76.4845 48.9868 83.758 52.5807 87.3519C54.0354 88.8066 56.1746 89.4911 58.5706 89.4911C62.1645 89.4911 66.443 88.0365 70.8927 85.3838C75.3423 88.0365 79.6208 89.4911 83.2147 89.4911C85.6962 89.4911 87.7499 88.8066 89.2046 87.3519C92.7985 83.758 91.7716 76.5701 87.2364 69.04C91.6861 61.5098 92.7985 54.2364 89.2046 50.6425ZM83.1292 51.926C84.755 51.926 85.9529 52.3539 86.723 53.124C88.7767 55.1777 88.1777 60.1407 85.0972 65.8739C83.6425 63.8202 81.9311 61.8521 79.963 59.884C77.9949 57.9159 76.0268 56.2045 73.9731 54.7498C77.3104 52.9529 80.4765 51.926 83.1292 51.926ZM54.8912 53.124C55.6613 52.3539 56.8592 51.926 58.485 51.926C61.1377 51.926 64.3038 52.9529 67.6411 54.7498C65.5874 56.2045 63.6193 57.9159 61.6512 59.884C59.7687 61.7665 58.0572 63.8202 56.6026 65.7883C53.522 60.0552 52.9231 55.0921 54.8912 53.124ZM58.485 86.1539C56.8592 86.1539 55.6613 85.7261 54.8912 84.9559C52.8375 82.9023 53.4365 77.9392 56.517 72.2061C57.9717 74.2597 59.6831 76.2278 61.6512 78.1959C63.6193 80.164 65.5874 81.8754 67.6411 83.3301C64.3038 85.1271 61.1377 86.1539 58.485 86.1539ZM64.0471 75.8C61.8223 73.5752 59.9398 71.2648 58.3995 69.04C59.9398 66.8152 61.7367 64.5048 63.9615 62.28C66.1008 60.1407 68.4112 58.2582 70.7216 56.7179C73.0319 58.2582 75.2568 60.1407 77.4816 62.28C79.7064 64.5048 81.5889 66.8152 83.1292 69.04C81.5889 71.2648 79.7919 73.5752 77.5671 75.8C75.4279 77.9392 73.1175 79.8218 70.8071 81.362C68.4967 79.8218 66.2719 77.9392 64.0471 75.8ZM86.723 84.9559C85.9529 85.7261 84.755 86.1539 83.1292 86.1539C80.4765 86.1539 77.3104 85.1271 73.9731 83.3301C76.0268 81.8754 77.9949 80.164 79.963 78.1959C81.8456 76.3134 83.557 74.2597 85.0117 72.2916C88.0922 78.0248 88.6912 82.9878 86.723 84.9559ZM70.8071 65.6172C68.9246 65.6172 67.3843 67.1574 67.3843 69.04C67.3843 70.9225 68.9246 72.4628 70.8071 72.4628C72.6896 72.4628 74.2299 70.9225 74.2299 69.04C74.2299 67.1574 72.6896 65.6172 70.8071 65.6172Z" fill="#E0F4FF"/>
</g>
</svg>
