<svg width="59" height="49" viewBox="0 0 59 49" fill="none" xmlns="http://www.w3.org/2000/svg">
<defs>
<filter id="filter0_d_413:16950" x="0" y="0" width="60" height="50" filterUnits="userSpaceOnUse" color-interpolation-filters="sRGB">
<feFlood flood-opacity="0" result="BackgroundImageFix"/>
<feColorMatrix in="SourceAlpha" type="matrix" values="0 0 0 0 0 0 0 0 0 0 0 0 0 0 0 0 0 0 127 0" result="hardAlpha"/>
<feOffset dx="1" dy="1"/>
<feGaussianBlur stdDeviation="1"/>
<feColorMatrix type="matrix" values="0 0 0 0 0 0 0 0 0 0 0 0 0 0 0 0 0 0 0.2 0"/>
<feBlend mode="normal" in2="BackgroundImageFix" result="effect1_dropShadow_413:16950"/>
<feBlend mode="normal" in="SourceGraphic" in2="effect1_dropShadow_413:16950" result="shape"/>
</filter>
<filter id="filter1_d_413:16950" x="10" y="5" width="40" height="40" filterUnits="userSpaceOnUse" color-interpolation-filters="sRGB">
<feFlood flood-opacity="0" result="BackgroundImageFix"/>
<feColorMatrix in="SourceAlpha" type="matrix" values="0 0 0 0 0 0 0 0 0 0 0 0 0 0 0 0 0 0 127 0" result="hardAlpha"/>
<feOffset dx="1" dy="1"/>
<feGaussianBlur stdDeviation="1"/>
<feColorMatrix type="matrix" values="0 0 0 0 0 0 0 0 0 0 0 0 0 0 0 0 0 0 0.2 0"/>
<feBlend mode="normal" in2="BackgroundImageFix" result="effect1_dropShadow_413:16950"/>
<feBlend mode="normal" in="SourceGraphic" in2="effect1_dropShadow_413:16950" result="shape"/>
</filter>
</defs>
<g filter="url(#filter0_d_413:16950)">
<path d="M1 9C1 4.58172 4.58172 1 9 1H49C53.4183 1 57 4.58172 57 9V39C57 43.4183 53.4183 47 49 47H9C4.58172 47 1 43.4183 1 39V9Z" fill="#4C8FBB"/>
<g filter="url(#filter1_d_413:16950)">
<path fill-rule="evenodd" clip-rule="evenodd" d="M44 34.0026L33.1137 23.1332C34.7403 19.4477 34.1147 15.0125 31.0491 11.9516C27.17 8.01614 20.7883 8.01614 16.9093 11.9516C13.0302 15.887 13.0302 22.1963 16.9093 26.1317C19.9124 29.1926 24.4171 29.8173 28.1084 28.1306L31.487 31.5039H35.2409V34.0026H37.7435V37.7507L38.9948 39H44V34.0026ZM23.2284 18.2608C22.2274 19.2603 20.6632 19.2603 19.6622 18.2608C18.6611 17.2613 18.6611 15.6996 19.6622 14.7001C20.6632 13.7007 22.2274 13.7007 23.2284 14.7001C24.2295 15.6371 24.2295 17.2613 23.2284 18.2608Z" fill="#E9F1F5"/>
</g>
</g>
</svg>
