<svg width="139" height="138" viewBox="0 0 139 138" fill="none" xmlns="http://www.w3.org/2000/svg">
<defs>
<filter id="filter0_d_413:13705" x="47.7765" y="46.3461" width="45.2702" height="45.2702" filterUnits="userSpaceOnUse" color-interpolation-filters="sRGB">
<feFlood flood-opacity="0" result="BackgroundImageFix"/>
<feColorMatrix in="SourceAlpha" type="matrix" values="0 0 0 0 0 0 0 0 0 0 0 0 0 0 0 0 0 0 127 0" result="hardAlpha"/>
<feOffset dx="1.07812" dy="1.07812"/>
<feGaussianBlur stdDeviation="1.07812"/>
<feColorMatrix type="matrix" values="0 0 0 0 0.0196078 0 0 0 0 0.27451 0 0 0 0 0.447059 0 0 0 1 0"/>
<feBlend mode="normal" in2="BackgroundImageFix" result="effect1_dropShadow_413:13705"/>
<feBlend mode="normal" in="SourceGraphic" in2="effect1_dropShadow_413:13705" result="shape"/>
</filter>
<radialGradient id="paint0_radial_413:13705" cx="0" cy="0" r="1" gradientUnits="userSpaceOnUse" gradientTransform="translate(69.3336 69.0001) rotate(90) scale(70.0593)">
<stop offset="0.465948" stop-color="#2174AB"/>
<stop offset="1" stop-color="#003D67"/>
</radialGradient>
</defs>
<path fill-rule="evenodd" clip-rule="evenodd" d="M24.2716 15.3535C21.1688 17.9625 18.2956 20.8358 15.6866 23.9386C19.1543 27.9882 19.8781 33.9407 17.0608 38.8205C14.2403 43.7056 8.7143 46.0548 3.46825 45.0681C2.09856 48.8369 1.04313 52.7565 0.333631 56.7952C5.36721 58.5654 8.97554 63.3613 8.97554 69.0001C8.97554 74.6388 5.36721 79.4348 0.333622 81.2049C1.04315 85.2438 2.09865 89.1637 3.46844 92.9326C8.71464 91.9456 14.2409 94.2948 17.0614 99.1801C19.8788 104.06 19.1549 110.013 15.6871 114.062C18.2959 117.165 21.1688 120.038 24.2712 122.646C28.3208 119.178 34.2736 118.454 39.1536 121.272C44.0391 124.092 46.3882 129.619 45.401 134.865C49.1701 136.235 53.0901 137.291 57.1292 138C58.8995 132.967 63.6954 129.359 69.334 129.359C74.9725 129.359 79.7683 132.967 81.5386 138C85.5772 137.29 89.4966 136.235 93.2651 134.866C92.2781 129.619 94.6273 124.093 99.5126 121.272C104.393 118.455 110.345 119.179 114.395 122.647C117.498 120.038 120.371 117.165 122.98 114.062C119.512 110.013 118.788 104.06 121.605 99.1802C124.426 94.2948 129.952 91.9456 135.199 92.9328C136.568 89.1637 137.624 85.2438 138.333 81.2047C133.3 79.4343 129.692 74.6386 129.692 69.0002C129.692 63.3617 133.3 58.566 138.334 56.7956C137.624 52.7569 136.569 48.8373 135.199 45.0685C129.953 46.0555 124.426 43.7063 121.606 38.821C118.788 33.941 119.512 27.9882 122.98 23.9386C120.371 20.8355 117.498 17.9621 114.395 15.3529C110.345 18.8207 104.392 19.5446 99.5126 16.7272C94.6275 13.9068 92.2783 8.3807 93.265 3.13462C89.4965 1.76504 85.5771 0.709678 81.5386 0.000213036C79.7682 5.03328 74.9725 8.64114 69.3341 8.64114C63.6956 8.64114 58.8999 5.0332 57.1295 3.05176e-05C53.0904 0.709546 49.1704 1.76507 45.4012 3.1349C46.3882 8.38109 44.039 13.9073 39.1537 16.7279C34.2739 19.5452 28.3212 18.8213 24.2716 15.3535Z" fill="url(#paint0_radial_413:13705)"/>
<circle cx="69.8728" cy="69.5394" r="33.9518" fill="#83B8CC"/>
<path d="M33.342 51.0342C33.3775 51.0518 33.4062 51.0806 33.4238 51.116C33.4437 51.1631 33.4499 51.2149 33.4416 51.2654C33.4296 51.3517 33.4081 51.4364 33.3776 51.5179C33.3456 51.6175 33.2922 51.7385 33.2282 51.8736C33.1737 51.9951 33.1131 52.1139 33.0468 52.2293C33.0047 52.3036 32.9559 52.3739 32.9009 52.4392C32.8661 52.478 32.8221 52.5073 32.7729 52.5245C32.7362 52.5385 32.6957 52.5385 32.6591 52.5245L26.7262 49.8071L26.0149 51.3863C26.8329 51.8879 27.5443 52.3431 28.149 52.7522C28.7536 53.1612 29.248 53.5311 29.65 53.8655C29.9965 54.1453 30.3146 54.4587 30.5996 54.8009C30.8063 55.0463 30.9644 55.3288 31.0656 55.6332C31.1509 55.8947 31.1717 56.173 31.1261 56.4442C31.0711 56.7435 30.9766 57.0341 30.8451 57.3085C30.823 57.3592 30.793 57.406 30.7561 57.4472C30.7205 57.4819 30.674 57.5032 30.6245 57.5077C30.557 57.5107 30.4894 57.501 30.4254 57.4792C30.3228 57.4495 30.2229 57.4114 30.1266 57.3654C29.963 57.2907 29.8314 57.2267 29.7353 57.1733C29.6579 57.1333 29.5861 57.083 29.5219 57.024C29.4832 56.9919 29.4557 56.9483 29.4437 56.8995C29.4406 56.858 29.4479 56.8164 29.465 56.7785C29.5165 56.6667 29.5455 56.5459 29.5504 56.4228C29.5422 56.2665 29.4945 56.1147 29.4117 55.9818C29.2824 55.7763 29.1283 55.5876 28.9528 55.4198C28.6757 55.1574 28.3822 54.9126 28.0743 54.6871C27.702 54.4097 27.2372 54.0896 26.68 53.7268C26.1228 53.364 25.4541 52.949 24.6739 52.4819C24.5274 52.4095 24.4041 52.2973 24.3182 52.1582C24.2957 52.1009 24.286 52.0394 24.2897 51.978C24.2933 51.9165 24.3104 51.8567 24.3396 51.8025L25.9935 48.1958C26.0164 48.1359 26.0516 48.0815 26.097 48.0361C26.1424 47.9907 26.1968 47.9555 26.2567 47.9326C26.3933 47.8967 26.5384 47.9145 26.6622 47.9824L33.342 51.0342Z" fill="white"/>
<path d="M38.0549 44.1947C38.0864 44.2187 38.1089 44.2525 38.119 44.2908C38.1322 44.3421 38.1322 44.3959 38.119 44.4473C38.0892 44.5275 38.0523 44.6049 38.0087 44.6784C37.9553 44.7709 37.8807 44.8812 37.7882 45.0092C37.712 45.1178 37.63 45.2223 37.5428 45.3222C37.4889 45.388 37.4267 45.4466 37.3578 45.4965C37.3183 45.5295 37.2701 45.5505 37.2191 45.557C37.1795 45.5573 37.1408 45.5448 37.1088 45.5214L33.6516 43.0316L33.2674 42.7471C33.1429 42.651 33.0362 42.5657 32.9437 42.4874L33.0398 42.7008L33.1536 42.964C33.1927 43.0565 33.2283 43.1526 33.2674 43.2521C33.3065 43.3517 33.3421 43.4478 33.3741 43.5438L35.1312 48.2815C35.1473 48.3314 35.1592 48.3826 35.1668 48.4345C35.1784 48.486 35.1784 48.5395 35.1668 48.591C35.1448 48.6583 35.115 48.7228 35.0779 48.7831C35.0352 48.8506 34.9747 48.9396 34.9 49.0427C34.8253 49.1459 34.7222 49.2775 34.6581 49.3522C34.6058 49.4137 34.546 49.4687 34.4803 49.5158C34.4426 49.545 34.3964 49.5612 34.3487 49.562C34.3067 49.5574 34.2665 49.5428 34.2313 49.5193L27.9855 45.0341C27.9688 45.0233 27.9546 45.0092 27.9436 44.9927C27.9326 44.9762 27.925 44.9576 27.9215 44.9381C27.9068 44.887 27.9068 44.8327 27.9215 44.7816C27.9489 44.6993 27.9859 44.6205 28.0317 44.5468C28.0981 44.4339 28.1705 44.3247 28.2487 44.2196C28.3447 44.088 28.4265 43.9813 28.4941 43.9031C28.55 43.8391 28.6119 43.7807 28.6791 43.7288C28.7199 43.6957 28.7692 43.6748 28.8213 43.6683C28.8606 43.6668 28.8993 43.678 28.9316 43.7003L32.4067 46.2115C32.5157 46.2897 32.6343 46.3751 32.7623 46.4675C32.8833 46.5565 32.9971 46.6489 33.118 46.7379C33.0576 46.6063 32.99 46.4462 32.9117 46.2577C32.8335 46.0692 32.7588 45.8736 32.6912 45.6815L30.9377 40.9473C30.9212 40.9011 30.9093 40.8535 30.9021 40.805C30.8924 40.7545 30.8924 40.7026 30.9021 40.6521C30.921 40.5831 30.9498 40.5172 30.9875 40.4565C31.0302 40.3818 31.0906 40.2964 31.1653 40.1897C31.2393 40.0848 31.3189 39.9838 31.4036 39.8874C31.455 39.8261 31.5135 39.7711 31.5779 39.7237C31.6164 39.6925 31.6636 39.6739 31.7131 39.6704C31.7375 39.6655 31.7626 39.6655 31.787 39.6704C31.8115 39.6753 31.8347 39.6849 31.8553 39.6988L38.0549 44.1947Z" fill="white"/>
<path d="M43.2124 39.13C43.2268 39.1438 43.2384 39.1604 43.2463 39.1787C43.2542 39.197 43.2584 39.2168 43.2586 39.2368C43.2588 39.2885 43.244 39.3391 43.2159 39.3826C43.1762 39.4564 43.1285 39.5255 43.0736 39.5889C42.9896 39.6882 42.8993 39.782 42.8033 39.8699C42.7103 39.9612 42.6117 40.0467 42.5081 40.126C42.4384 40.179 42.3647 40.2266 42.2876 40.2682C42.239 40.2964 42.1837 40.3112 42.1275 40.3109C42.1073 40.3101 42.0875 40.3053 42.0692 40.2967C42.0509 40.2882 42.0344 40.2761 42.0208 40.2611L40.1179 38.2764L39.6804 38.7459C39.5346 38.9024 39.3852 39.0554 39.2287 39.2047C38.9331 39.4903 38.6075 39.7431 38.2577 39.9588C37.963 40.1451 37.6319 40.2663 37.2867 40.3145C36.9433 40.3504 36.5967 40.2926 36.2836 40.1473C35.8789 39.9546 35.5163 39.6838 35.2166 39.3506L33.6338 37.6682C33.6055 37.6407 33.5879 37.6042 33.584 37.565C33.5834 37.5138 33.597 37.4633 33.6231 37.4192C33.6653 37.347 33.7129 37.2781 33.7654 37.2129C33.8341 37.1346 33.923 37.0422 34.0321 36.9355C34.1263 36.8428 34.2261 36.7561 34.3309 36.6758C34.4012 36.6218 34.4762 36.5742 34.555 36.5335C34.6024 36.5055 34.6564 36.4907 34.7115 36.4909C34.7317 36.4917 34.7515 36.4965 34.7698 36.5051C34.7881 36.5136 34.8046 36.5257 34.8182 36.5407L36.3014 38.0986C36.4588 38.2616 36.6384 38.4017 36.8349 38.5147C36.9854 38.6097 37.1586 38.6626 37.3364 38.6677C37.5236 38.6686 37.708 38.6234 37.8735 38.5361C38.0956 38.4212 38.2984 38.2724 38.4746 38.095C38.6145 37.9622 38.7426 37.8306 38.8588 37.7002C38.9797 37.565 39.0971 37.4299 39.2145 37.2912L36.746 34.7195C36.732 34.7056 36.721 34.6889 36.7137 34.6706C36.7064 34.6522 36.7028 34.6326 36.7033 34.6128C36.7075 34.5575 36.7245 34.5039 36.7531 34.4563C36.7983 34.3801 36.8494 34.3075 36.9061 34.2394C36.9772 34.1576 37.0661 34.0651 37.1764 33.9584C37.2692 33.8667 37.3678 33.7812 37.4716 33.7023C37.5385 33.6519 37.6099 33.6078 37.685 33.5707C37.7306 33.5454 37.7823 33.5331 37.8344 33.5351C37.8745 33.5386 37.9115 33.5578 37.9375 33.5885L43.2124 39.13Z" fill="white"/>
<path d="M49.8137 34.5839C49.8356 34.6177 49.8456 34.6577 49.8422 34.6978C49.8319 34.7508 49.8073 34.8 49.771 34.84C49.7179 34.9063 49.657 34.966 49.5896 35.0179C49.4887 35.1026 49.3817 35.1799 49.2695 35.2491C49.1555 35.3253 49.0367 35.3942 48.9139 35.4554C48.837 35.4935 48.7573 35.5256 48.6755 35.5514C48.6253 35.5638 48.5728 35.5638 48.5226 35.5514C48.4825 35.5391 48.4483 35.5125 48.4266 35.4767L46.6481 32.7415L44.1156 34.3954L45.8941 37.1306C45.9185 37.1646 45.9299 37.2063 45.9261 37.248C45.9179 37.3 45.8944 37.3483 45.8585 37.3867C45.8053 37.453 45.7444 37.5127 45.6771 37.5646C45.5741 37.6494 45.466 37.7278 45.3534 37.7993C45.2386 37.8732 45.1199 37.9409 44.9978 38.0021C44.92 38.0409 44.8391 38.073 44.7559 38.0981C44.7049 38.114 44.6503 38.114 44.5994 38.0981C44.5598 38.0867 44.5257 38.0615 44.5033 38.027L40.3276 31.6246C40.3057 31.5896 40.2958 31.5484 40.2991 31.5073C40.3107 31.4554 40.3338 31.4068 40.3667 31.365C40.423 31.2993 40.4849 31.2386 40.5517 31.1836C40.6552 31.1006 40.7633 31.0234 40.8753 30.9524C40.9898 30.8779 41.1086 30.8102 41.231 30.7496C41.3073 30.7103 41.3871 30.6782 41.4694 30.6536C41.5191 30.6376 41.5726 30.6376 41.6223 30.6536C41.6609 30.6669 41.6936 30.6933 41.7148 30.7283L43.3402 33.2181L45.8727 31.5642L44.2473 29.0744C44.225 29.0395 44.2162 28.9978 44.2224 28.957C44.2297 28.9055 44.252 28.8573 44.2864 28.8183C44.3404 28.7516 44.4012 28.6908 44.4678 28.6369C44.5531 28.5693 44.6598 28.491 44.795 28.4021C44.9302 28.3132 45.044 28.2492 45.1507 28.2029C45.2273 28.1642 45.307 28.1321 45.389 28.1069C45.4402 28.0928 45.4943 28.0928 45.5455 28.1069C45.585 28.1183 45.6191 28.1435 45.6415 28.178L49.8137 34.5839Z" fill="white"/>
<path d="M55.9566 29.3375C56.0855 29.6725 56.1542 30.0278 56.1594 30.3868C56.159 30.7263 56.0799 31.0611 55.9282 31.3649C55.7459 31.7063 55.4952 32.0066 55.1919 32.247C54.739 32.5891 54.2332 32.8546 53.6945 33.0331L51.916 33.7017C51.8533 33.7257 51.7874 33.7401 51.7204 33.7444C51.6582 33.7483 51.5961 33.7374 51.539 33.7124C51.4783 33.686 51.4238 33.6472 51.3789 33.5986C51.3259 33.5395 51.2848 33.4706 51.258 33.3959L48.6722 26.5027C48.658 26.4648 48.658 26.4231 48.6722 26.3853C48.6953 26.3366 48.7309 26.2949 48.7753 26.2644C48.8449 26.2132 48.9187 26.168 48.9958 26.1292C49.0907 26.0818 49.2093 26.032 49.3515 25.9798C49.5045 25.9229 49.629 25.8802 49.7321 25.8518C49.8189 25.8352 49.907 25.8268 49.9953 25.8269C50.0469 25.8205 50.0991 25.8305 50.1447 25.8553C50.1801 25.8743 50.2068 25.9061 50.2194 25.9442L51.1975 28.5621L52.1543 28.2064C52.6103 28.0241 53.0889 27.9045 53.5771 27.8507C53.9225 27.8184 54.2709 27.8559 54.6015 27.961C54.9099 28.0648 55.19 28.2389 55.4195 28.4696C55.6579 28.7177 55.841 29.0135 55.9566 29.3375ZM54.4236 30.0489C54.3621 29.8765 54.2705 29.7163 54.1533 29.5758C54.0458 29.4505 53.9106 29.3519 53.7585 29.2877C53.5911 29.2224 53.4114 29.1945 53.2321 29.2059C52.9532 29.2327 52.6798 29.3011 52.4211 29.4086L51.6315 29.7038L52.5314 32.1118L53.3459 31.8059C53.625 31.7164 53.8854 31.5766 54.1142 31.3933C54.2456 31.2835 54.3499 31.1449 54.419 30.9882C54.4881 30.8315 54.5201 30.661 54.5125 30.4899C54.5033 30.343 54.4734 30.1981 54.4236 30.0595V30.0489ZM59.2823 30.7069C59.2966 30.7435 59.2966 30.7841 59.2823 30.8207C59.2616 30.8698 59.227 30.9119 59.1827 30.9416C59.1142 30.9944 59.0403 31.0397 58.9622 31.0768C58.8661 31.123 58.7452 31.1728 58.6065 31.2297C58.4678 31.2866 58.3326 31.3258 58.2508 31.3507C58.1686 31.3753 58.0839 31.3909 57.9983 31.3969C57.9448 31.4036 57.8905 31.395 57.8418 31.372C57.8061 31.3524 57.7784 31.3209 57.7635 31.2831L55.0781 24.1053C55.0639 24.0675 55.0639 24.0258 55.0781 23.988C55.0996 23.9393 55.1341 23.8975 55.1777 23.867C55.2481 23.8152 55.3231 23.7699 55.4018 23.7319C55.4966 23.6844 55.6152 23.6347 55.7574 23.5825C55.8803 23.5329 56.0062 23.4913 56.1345 23.458C56.2168 23.4336 56.3014 23.4181 56.387 23.4118C56.4393 23.4068 56.492 23.4154 56.5399 23.4367C56.5756 23.4563 56.6033 23.4877 56.6182 23.5256L59.2823 30.7069Z" fill="white"/>
<path d="M67.5696 29.5047C67.5735 29.5244 67.5733 29.5446 67.569 29.5642C67.5648 29.5838 67.5565 29.6023 67.5447 29.6185C67.5126 29.6587 67.471 29.6905 67.4238 29.711C67.3455 29.7479 67.2631 29.7754 67.1784 29.7928C67.0752 29.8177 66.9436 29.8391 66.7871 29.8604C66.6306 29.8817 66.499 29.896 66.3923 29.8995C66.3073 29.9098 66.2213 29.9098 66.1362 29.8995C66.0861 29.8933 66.0391 29.8723 66.0011 29.8391C65.9856 29.8264 65.9729 29.8108 65.9637 29.793C65.9545 29.7753 65.9491 29.7558 65.9477 29.7359L65.3786 25.5104C65.3573 25.3503 65.3359 25.1902 65.3217 25.0337C65.3075 24.8772 65.2932 24.7421 65.2826 24.6211C65.2577 24.6852 65.2257 24.7563 65.1901 24.8381C65.1545 24.9199 65.1189 25.0088 65.0798 25.1013L64.9482 25.3823C64.902 25.4783 64.8558 25.5744 64.8095 25.6633L62.5829 30.1983C62.557 30.2446 62.5273 30.2886 62.494 30.3299C62.4593 30.3699 62.417 30.4025 62.3695 30.4259C62.3055 30.4541 62.2388 30.4756 62.1703 30.49C62.0921 30.5077 61.9854 30.522 61.8573 30.5398C61.7293 30.5575 61.5657 30.5753 61.4661 30.5789C61.3862 30.5836 61.3061 30.5776 61.2278 30.5611C61.1799 30.5555 61.1356 30.5328 61.1033 30.4971C61.076 30.4651 61.0598 30.4252 61.057 30.3832L60.022 22.7858C60.0171 22.7457 60.0272 22.7051 60.0504 22.672C60.082 22.6288 60.1251 22.5955 60.1749 22.5759C60.2538 22.5406 60.336 22.5132 60.4204 22.4941C60.5199 22.4728 60.6516 22.4479 60.8081 22.4266C60.9646 22.4052 61.0997 22.3945 61.2064 22.391C61.2904 22.383 61.375 22.383 61.4589 22.391C61.5111 22.3974 61.5604 22.4184 61.6012 22.4515C61.6295 22.4789 61.6471 22.5154 61.651 22.5546L62.2237 26.8228C62.2237 26.9544 62.2593 27.0967 62.277 27.2461C62.2948 27.3955 62.3055 27.5413 62.3162 27.6836C62.3695 27.552 62.4406 27.3884 62.5224 27.2034C62.6043 27.0185 62.6967 26.8299 62.7892 26.6485L65.0194 22.1171C65.0391 22.073 65.0655 22.0323 65.0976 21.9962C65.131 21.9562 65.1721 21.9236 65.2185 21.9001C65.2826 21.8673 65.3508 21.8434 65.4213 21.829C65.5245 21.8042 65.629 21.7852 65.7343 21.7721C65.8908 21.7508 66.0188 21.7401 66.1184 21.7365C66.1977 21.7282 66.2775 21.7282 66.3567 21.7365C66.4057 21.7452 66.4513 21.7674 66.4883 21.8006C66.5173 21.8304 66.5349 21.8694 66.5381 21.9108L67.5696 29.5047ZM65.2897 19.6736C65.3184 19.8966 65.3075 20.123 65.2577 20.3422C65.2059 20.5655 65.101 20.7729 64.9518 20.9469C64.7735 21.1489 64.554 21.3102 64.308 21.42C63.9803 21.5691 63.6309 21.6652 63.273 21.7045C62.9192 21.7573 62.5596 21.7573 62.2059 21.7045C61.9429 21.6678 61.69 21.5782 61.4625 21.4413C61.2675 21.3195 61.106 21.1507 60.993 20.9505C60.8801 20.7378 60.8066 20.5064 60.776 20.2675C60.7629 20.2162 60.7629 20.1624 60.776 20.111C60.798 20.0655 60.8325 20.0272 60.8756 20.0008C60.9417 19.9618 61.0138 19.9341 61.089 19.919C61.2064 19.8915 61.3251 19.8702 61.4447 19.855C61.5543 19.8393 61.6648 19.831 61.7755 19.8301C61.8454 19.8279 61.9151 19.8375 61.9818 19.8585C62.0266 19.8747 62.0652 19.9046 62.0921 19.9439C62.1165 19.9853 62.1322 20.0313 62.1383 20.079C62.148 20.1756 62.181 20.2683 62.2343 20.3494C62.285 20.432 62.3545 20.5014 62.4371 20.5521C62.5307 20.6084 62.6328 20.6493 62.7394 20.673C62.8654 20.6946 62.9941 20.6946 63.12 20.673C63.2439 20.6585 63.3643 20.6224 63.4757 20.5663C63.5719 20.5182 63.6586 20.4531 63.7318 20.3743C63.7973 20.3016 63.8459 20.2154 63.8741 20.1217C63.8997 20.0231 63.9058 19.9204 63.8918 19.8194C63.8826 19.7748 63.8826 19.7288 63.8918 19.6842C63.9073 19.6409 63.9375 19.6043 63.9772 19.5811C64.033 19.5422 64.0958 19.5144 64.1622 19.4993C64.2608 19.4695 64.362 19.4492 64.4645 19.4388C64.5824 19.4211 64.7011 19.4092 64.8202 19.4032C64.9014 19.398 64.983 19.4052 65.062 19.4246C65.1139 19.4362 65.1603 19.465 65.1936 19.5064C65.2421 19.5509 65.2756 19.6093 65.2897 19.6736Z" fill="white"/>
<path d="M77.8453 30.1843C77.8412 30.2266 77.8238 30.2665 77.7955 30.2982C77.7542 30.3306 77.7051 30.3515 77.6532 30.3586C77.5665 30.3748 77.4781 30.3808 77.39 30.3764C77.2496 30.3742 77.1094 30.3635 76.9703 30.3444C76.8257 30.3316 76.682 30.3102 76.5399 30.2804C76.4514 30.2659 76.3653 30.2396 76.2838 30.2021C76.2281 30.1792 76.18 30.1409 76.1451 30.0919C76.1144 30.0457 76.0938 29.9936 76.0846 29.9389L75.64 28.0751C75.5888 27.8406 75.5174 27.6109 75.4266 27.3887C75.3574 27.2198 75.2626 27.0627 75.1456 26.9227C75.04 26.8026 74.9087 26.7078 74.7615 26.6453C74.5992 26.5777 74.4278 26.5345 74.2528 26.5172L73.8972 26.4781L73.5415 29.6971C73.5374 29.7383 73.5199 29.777 73.4917 29.8073C73.4518 29.8411 73.4041 29.8643 73.3529 29.8749C73.2685 29.8908 73.1827 29.8979 73.0969 29.8962C72.9937 29.8962 72.8586 29.8962 72.6985 29.8678C72.5384 29.8393 72.4104 29.8287 72.3037 29.8073C72.2159 29.7951 72.1299 29.7724 72.0476 29.7397C71.9983 29.7193 71.9554 29.6861 71.9231 29.6437C71.901 29.6075 71.891 29.5651 71.8946 29.5228L72.759 21.9147C72.76 21.8936 72.7652 21.873 72.7744 21.8541C72.7836 21.8351 72.7965 21.8182 72.8123 21.8044C72.8527 21.7701 72.9021 21.7479 72.9546 21.7404C73.0397 21.7317 73.1255 21.7317 73.2107 21.7404C73.3427 21.7427 73.4745 21.7522 73.6055 21.7688C73.738 21.7823 73.8698 21.8025 74.0003 21.8293C74.0847 21.8448 74.167 21.8699 74.2457 21.904C74.2943 21.9222 74.3363 21.9544 74.3667 21.9965C74.3878 22.0317 74.3965 22.073 74.3916 22.1138L74.0394 25.1158L74.3951 25.1585C74.5611 25.1808 74.7296 25.1735 74.8931 25.1372C75.042 25.1043 75.1817 25.0387 75.3021 24.9451C75.4397 24.8361 75.5597 24.7065 75.6578 24.561C75.7912 24.3673 75.9101 24.164 76.0135 23.9527L76.7249 22.4126C76.7481 22.3617 76.7793 22.3149 76.8173 22.2739C76.8575 22.2326 76.9099 22.2051 76.9667 22.1956C77.0523 22.1798 77.1393 22.1726 77.2264 22.1743C77.3331 22.1743 77.4754 22.185 77.6532 22.2063C77.8168 22.2063 77.9484 22.2454 78.0551 22.2668C78.1379 22.2824 78.2189 22.3062 78.297 22.3379C78.3433 22.3549 78.3832 22.386 78.4108 22.4268C78.4281 22.4634 78.4343 22.5042 78.4286 22.5442C78.4196 22.6111 78.4029 22.6768 78.3788 22.7398C78.34 22.8428 78.2961 22.9437 78.2472 23.0422L77.5358 24.408C77.4267 24.6311 77.3019 24.8463 77.1623 25.0518C77.0599 25.2111 76.9407 25.359 76.8067 25.4929C76.6924 25.604 76.5631 25.6986 76.4225 25.7738C76.2871 25.8467 76.1423 25.9005 75.9921 25.9339C76.1414 26.0174 76.283 26.1138 76.4154 26.222C76.5511 26.3317 76.6709 26.4598 76.7711 26.6026C76.8838 26.7722 76.978 26.9535 77.0521 27.1432C77.1497 27.3956 77.2328 27.6533 77.3011 27.9151L77.7706 29.6544C77.8061 29.7709 77.8334 29.8897 77.8524 30.0101C77.8543 30.0683 77.8519 30.1265 77.8453 30.1843Z" fill="white"/>
<path d="M85.4426 31.9589C85.4525 32.0773 85.4525 32.1963 85.4426 32.3146C85.4419 32.3501 85.432 32.3848 85.4139 32.4153C85.3958 32.4458 85.3702 32.4712 85.3395 32.4889C85.2562 32.5156 85.1667 32.5156 85.0834 32.4889C84.966 32.464 84.8131 32.4213 84.6174 32.3644C84.4218 32.3075 84.2618 32.2541 84.1444 32.215C84.0568 32.185 83.9723 32.1469 83.8918 32.1012C83.8465 32.0749 83.8104 32.0351 83.7887 31.9874C83.7733 31.9416 83.7661 31.8934 83.7674 31.8451L83.7104 30.1307L80.8009 29.2628L79.8548 30.6287C79.8269 30.6752 79.7922 30.7171 79.7516 30.7532C79.7066 30.7843 79.6534 30.8016 79.5987 30.8029C79.5112 30.8071 79.4236 30.7975 79.3391 30.7745C79.2324 30.7532 79.0901 30.714 78.9194 30.6642C78.7486 30.6144 78.5921 30.5611 78.4925 30.5184C78.4137 30.4911 78.347 30.437 78.304 30.3655C78.2895 30.333 78.282 30.2979 78.282 30.2623C78.282 30.2268 78.2895 30.1916 78.304 30.1592C78.3594 30.0509 78.4236 29.9474 78.4961 29.8497L82.9386 23.6928C82.9762 23.6399 83.0218 23.5931 83.0738 23.5541C83.1273 23.5184 83.1909 23.5009 83.2552 23.5043C83.3573 23.5062 83.4588 23.5206 83.5575 23.547L84.0519 23.6857C84.2866 23.7568 84.4716 23.8137 84.6103 23.8635C84.7207 23.8976 84.8269 23.9442 84.9269 24.0022C84.9865 24.0366 85.0338 24.0889 85.0621 24.1516C85.0853 24.2179 85.0973 24.2877 85.0976 24.3579L85.4426 31.9589ZM83.5788 25.2009L81.4981 28.1673L83.6962 28.8253L83.5788 25.2009Z" fill="white"/>
<path d="M92.5499 33.4098C92.4001 33.7189 92.1896 33.9947 91.931 34.2207C91.6831 34.4362 91.3883 34.5908 91.0702 34.6725C90.7124 34.7584 90.3409 34.7705 89.9782 34.708C89.4808 34.6103 89.0011 34.4376 88.5555 34.1958L86.6312 33.2319C86.5631 33.2076 86.5018 33.1676 86.4521 33.115C86.4024 33.0625 86.3659 32.999 86.3454 32.9296C86.3249 32.8603 86.3212 32.7871 86.3344 32.716C86.3476 32.6449 86.3774 32.5779 86.4214 32.5206L89.5905 26.2427C89.6125 26.1781 89.6487 26.1192 89.6966 26.0704C89.7444 26.0217 89.8025 25.9843 89.8668 25.9611C89.931 25.9378 89.9996 25.9293 90.0675 25.9362C90.1355 25.9431 90.201 25.9652 90.2592 26.0008L94.3461 28.0638C94.3803 28.0798 94.4089 28.1058 94.4279 28.1385C94.4501 28.1798 94.4588 28.2271 94.4528 28.2737C94.447 28.3431 94.4315 28.4114 94.4065 28.4764C94.3711 28.5727 94.3295 28.6665 94.282 28.7574C94.2381 28.8472 94.1882 28.934 94.1327 29.0171C94.0959 29.0758 94.0503 29.1286 93.9975 29.1736C93.9629 29.2043 93.9214 29.2263 93.8766 29.2376C93.8388 29.2442 93.8 29.2379 93.7663 29.2198L90.7109 27.6761L89.8324 29.4759L91.0169 30.0948C91.4036 30.2816 91.7627 30.5209 92.0839 30.8062C92.3241 31.0254 92.5166 31.2918 92.6494 31.5887C92.768 31.8669 92.8204 32.1689 92.8024 32.4708C92.7858 32.7981 92.6998 33.1183 92.5499 33.4098ZM91.0133 32.7518C91.0909 32.605 91.1381 32.4441 91.152 32.2787C91.1661 32.1278 91.1454 31.9757 91.0915 31.8341C91.0288 31.6799 90.9329 31.5414 90.8105 31.4286C90.631 31.2704 90.4298 31.1386 90.213 31.0374L89.2704 30.5607L88.2034 32.6415L89.1637 33.1252C89.3592 33.2314 89.5688 33.3092 89.7862 33.3564C89.948 33.3904 90.1152 33.3904 90.277 33.3564C90.4262 33.3168 90.5655 33.2465 90.6861 33.1501C90.8244 33.0444 90.9364 32.908 91.0133 32.7518Z" fill="white"/>
<path d="M97.771 40.0755C97.7449 40.1063 97.7102 40.1286 97.6714 40.1395C97.6183 40.1453 97.5646 40.138 97.5149 40.1182C97.4349 40.0876 97.3586 40.0482 97.2873 40.0008C97.174 39.9311 97.0648 39.8551 96.96 39.7732C96.8356 39.6771 96.7324 39.5953 96.6542 39.5206C96.5899 39.4648 96.5326 39.4015 96.4834 39.3321C96.4527 39.292 96.4342 39.2438 96.4301 39.1934C96.4287 39.1536 96.4413 39.1146 96.4657 39.0831L99.0515 35.6899L99.3467 35.3342C99.4463 35.2109 99.5352 35.1042 99.6135 35.0141L99.3965 35.103L99.1333 35.2062C99.0408 35.2453 98.9412 35.2809 98.8416 35.3164L98.5464 35.416L93.7447 37.0202C93.6952 37.0372 93.6438 37.048 93.5917 37.0522C93.5386 37.0587 93.4847 37.0514 93.4352 37.0308C93.3692 37.0081 93.3068 36.9757 93.2502 36.9348C93.1606 36.8789 93.074 36.8183 92.9906 36.7534C92.8626 36.6538 92.763 36.5684 92.6883 36.5009C92.6286 36.4486 92.576 36.3889 92.5318 36.323C92.5044 36.283 92.4884 36.2363 92.4855 36.1879C92.4922 36.1463 92.5094 36.1072 92.5353 36.074L97.1592 29.9883C97.1847 29.9568 97.2196 29.9343 97.2588 29.9242C97.312 29.9185 97.3657 29.9258 97.4153 29.9456C97.4955 29.9783 97.5728 30.0175 97.6465 30.0629C97.7354 30.1199 97.8422 30.1946 97.9702 30.2906C98.0768 30.3689 98.179 30.4533 98.2761 30.5431C98.3405 30.6 98.3978 30.6645 98.4468 30.7352C98.4798 30.7744 98.4997 30.8229 98.5037 30.8739C98.5068 30.9139 98.494 30.9535 98.4682 30.9842L95.8788 34.3952L95.6156 34.7295C95.5195 34.8469 95.427 34.9607 95.3346 35.0674C95.4662 35.0105 95.6298 34.9465 95.8219 34.8718C96.0139 34.7971 96.206 34.7295 96.4016 34.6691L101.214 33.0472C101.259 33.0322 101.306 33.0215 101.353 33.0151C101.406 33.0124 101.459 33.0196 101.509 33.0365C101.577 33.0583 101.642 33.0894 101.701 33.129C101.792 33.1847 101.88 33.2453 101.965 33.3104C102.089 33.4064 102.189 33.4882 102.26 33.5558C102.32 33.6093 102.372 33.6702 102.416 33.7372C102.447 33.7759 102.464 33.8232 102.466 33.8723C102.465 33.914 102.45 33.954 102.423 33.9862L97.771 40.0755Z" fill="white"/>
<path d="M103.223 45.9871C103.193 46.0145 103.154 46.0308 103.113 46.0333C103.06 46.0311 103.008 46.0139 102.964 45.9835C102.89 45.9395 102.821 45.8882 102.757 45.8306C102.679 45.7595 102.59 45.667 102.483 45.5496C102.394 45.4486 102.309 45.3429 102.231 45.233C102.181 45.1639 102.138 45.0901 102.103 45.0125C102.08 44.9649 102.072 44.9119 102.078 44.8596C102.083 44.8192 102.103 44.7823 102.135 44.7564L104.582 42.5903L102.579 40.3246L100.147 42.4907C100.115 42.5167 100.077 42.5328 100.036 42.5369C99.984 42.5375 99.9329 42.5213 99.8905 42.4907C99.8175 42.4473 99.7495 42.396 99.6877 42.3378C99.5889 42.2469 99.4951 42.1507 99.4067 42.0497C99.3178 41.9515 99.2346 41.8481 99.1577 41.7402C99.1082 41.669 99.0642 41.5941 99.0261 41.5161C99.002 41.469 98.9933 41.4155 99.0013 41.3632C99.0056 41.3215 99.026 41.2832 99.0582 41.2565L104.77 36.1951C104.802 36.1671 104.842 36.1518 104.884 36.1524C104.938 36.1532 104.989 36.1692 105.034 36.1986C105.107 36.2441 105.176 36.2965 105.24 36.3551C105.318 36.4263 105.411 36.5223 105.517 36.6397C105.607 36.7388 105.69 36.8433 105.766 36.9527C105.817 37.0213 105.86 37.0953 105.894 37.1732C105.919 37.2203 105.927 37.2738 105.919 37.3262C105.913 37.3652 105.893 37.4007 105.862 37.4257L103.636 39.3962L105.642 41.662L107.858 39.6986C107.888 39.6706 107.927 39.6543 107.968 39.6523C108.02 39.6543 108.07 39.6703 108.114 39.6986C108.188 39.7427 108.257 39.7939 108.32 39.8515C108.398 39.9227 108.491 40.0187 108.601 40.1396C108.711 40.2606 108.786 40.3637 108.847 40.4491C108.897 40.5177 108.94 40.5917 108.975 40.6696C108.998 40.717 109.008 40.7699 109.003 40.8225C108.998 40.8638 108.977 40.9016 108.946 40.9292L103.223 45.9871Z" fill="white"/>
<path d="M107.051 51.2407C106.965 51.2956 106.876 51.3443 106.784 51.3865C106.724 51.4175 106.659 51.439 106.592 51.4506C106.549 51.4635 106.503 51.4635 106.46 51.4506C106.425 51.437 106.395 51.412 106.375 51.3794L104.241 47.9257C104.172 47.8209 104.144 47.6942 104.163 47.57C104.18 47.4994 104.212 47.4334 104.258 47.3768C104.303 47.3203 104.361 47.2745 104.426 47.2428L110.419 43.5259C110.472 43.4799 110.534 43.4465 110.602 43.4284C110.669 43.4102 110.74 43.4077 110.809 43.4211C110.877 43.4345 110.942 43.4634 110.998 43.5056C111.054 43.5478 111.099 43.6022 111.131 43.6646L113.265 47.097C113.284 47.1277 113.294 47.1637 113.293 47.2001C113.286 47.2443 113.267 47.2859 113.24 47.3211C113.197 47.3749 113.148 47.4238 113.094 47.4669C113.012 47.5314 112.927 47.5908 112.838 47.6447C112.754 47.6965 112.667 47.744 112.578 47.787C112.516 47.8148 112.452 47.8362 112.386 47.851C112.343 47.8622 112.298 47.8622 112.255 47.851C112.22 47.839 112.191 47.815 112.173 47.7834L110.65 45.3292L108.972 46.3714L110.259 48.4486C110.278 48.4807 110.287 48.518 110.284 48.5553C110.278 48.5991 110.261 48.6407 110.234 48.6762C110.195 48.7299 110.148 48.7778 110.095 48.8185C110.017 48.8801 109.935 48.9371 109.85 48.9892C109.765 49.0427 109.677 49.0914 109.587 49.135C109.528 49.1617 109.466 49.182 109.402 49.1955C109.359 49.2087 109.313 49.2087 109.27 49.1955C109.237 49.1809 109.21 49.1559 109.192 49.1244L107.901 47.0472L105.934 48.2352L107.471 50.725C107.49 50.7571 107.498 50.7944 107.495 50.8317C107.489 50.8773 107.471 50.9204 107.442 50.9562C107.401 51.0097 107.353 51.0575 107.3 51.0984C107.22 51.1512 107.137 51.1987 107.051 51.2407Z" fill="white"/>
<path d="M116.007 54.6978C115.913 54.7397 115.817 54.7754 115.719 54.8045C115.651 54.8271 115.58 54.8403 115.509 54.8437C115.463 54.8478 115.416 54.8392 115.374 54.8188C115.34 54.8013 115.313 54.774 115.296 54.7405L114.495 52.8803L108.509 55.4661C108.47 55.4802 108.427 55.4802 108.388 55.4661C108.337 55.4489 108.293 55.4167 108.26 55.3736C108.204 55.309 108.155 55.2386 108.114 55.1638C108.049 55.0487 107.991 54.9299 107.94 54.8081C107.887 54.6919 107.839 54.5732 107.798 54.4524C107.774 54.3697 107.756 54.2853 107.744 54.1999C107.735 54.1467 107.743 54.0921 107.766 54.0434C107.785 54.0076 107.815 53.979 107.851 53.9615L113.837 51.3757L113.037 49.5155C113.023 49.4788 113.023 49.4383 113.037 49.4017C113.055 49.359 113.082 49.3203 113.115 49.2878C113.167 49.2391 113.224 49.1973 113.286 49.1634C113.362 49.1207 113.454 49.0744 113.563 49.0246C113.661 48.9815 113.76 48.9447 113.862 48.9144C113.93 48.8921 114.001 48.8789 114.072 48.8752C114.118 48.8698 114.165 48.8772 114.207 48.8966C114.241 48.9161 114.267 48.9461 114.282 48.9819L116.541 54.2176C116.553 54.2521 116.553 54.2899 116.541 54.3243C116.529 54.3698 116.504 54.4107 116.469 54.4417C116.416 54.4895 116.358 54.5313 116.295 54.5662C116.202 54.6163 116.106 54.6603 116.007 54.6978Z" fill="white"/>
<g filter="url(#filter0_d_413:13705)">
<path fill-rule="evenodd" clip-rule="evenodd" d="M89.8124 81.5592L74.9497 66.7197C77.1706 61.688 76.3165 55.6328 72.131 51.4539C66.8351 46.081 58.1225 46.081 52.8266 51.4539C47.5307 56.8268 47.5307 65.4405 52.8266 70.8134C56.9266 74.9923 63.0767 75.8451 68.1163 73.5425L72.7289 78.1478H77.8539V81.5592H81.2706V86.6763L82.979 88.382H89.8124V81.5592ZM61.4538 60.0676C60.0871 61.4321 57.9516 61.4321 56.585 60.0676C55.2183 58.703 55.2183 56.5709 56.585 55.2064C57.9516 53.8418 60.0871 53.8418 61.4538 55.2064C62.8205 56.4856 62.8205 58.703 61.4538 60.0676Z" fill="#E0F4FF"/>
</g>
</svg>
