<svg width="341" height="52" viewBox="0 0 341 52" fill="none" xmlns="http://www.w3.org/2000/svg">
<g filter="url(#filter0_d)">
<path d="M2 19.9833C5.42914 14.981 13.4584 9.36623 17.7479 7.17659C32.358 -0.273528 46.331 1.51913 54.2366 6.27581C61.3023 10.5216 66.857 17.1279 65.8904 26.474C64.9218 35.8485 58.7998 42.7253 52.8771 45.3369C45.4707 48.6053 37.9318 48.5145 31.6721 46.0988C27.9533 44.6658 21.2014 41.1962 17.8543 34.7607L30.5238 27.8803C35.2234 38.0292 47.4444 38.9335 52.5175 37.1284C55.0863 36.2134 62.8625 33.155 63.5481 23.8161C64.0019 17.6246 59.6618 11.8158 53.2801 9.18644C44.2003 5.44803 33.8605 8.43518 27.8329 13.2791C23.0321 17.1368 20.3062 20.4693 14.502 29.3578L2 19.9833ZM33.8692 22.2798C33.5865 29.0374 41.4657 34.2392 48.6032 34.0095C59.3025 33.6659 61.3475 25.8046 61.2641 22.4543C61.098 15.7643 54.4617 11.6965 48.5072 11.2977C39.1429 10.6694 34.1502 15.5417 33.8692 22.2798Z" fill="white"/>
</g>
<g filter="url(#filter1_d)">
<path d="M82 24.6142H90.0585V21.9025H84.7809V18.4365H89.8352V15.7248H84.7809V12.2384H90.0585V9.52678H82V24.6142Z" fill="white"/>
<path d="M92.5456 24.6142H96.3008C101.112 24.6142 102.289 22.2083 102.289 20.0268C102.289 18.3345 101.355 16.9277 99.7313 16.3773C100.137 16.153 101.375 15.3782 101.375 13.5025C101.375 9.54716 97.0925 9.52678 96.1588 9.52678H92.5456V24.6142ZM95.3265 21.9025V18.0491H97.1331C99.305 18.0491 99.508 19.4355 99.508 20.0064C99.508 21.8821 97.4579 21.9025 97.1331 21.9025H95.3265ZM95.3265 15.3375V12.2384H96.6256C97.2346 12.2384 98.5946 12.32 98.5946 13.7879C98.5946 14.1753 98.4525 15.3375 96.6256 15.3375H95.3265Z" fill="white"/>
<path d="M104.32 24.6142H107.101V18.9054H108.522C112.886 18.9054 113.901 16.1326 113.901 14.2365C113.901 12.8093 113.333 9.52678 108.522 9.52678H104.32V24.6142ZM107.101 12.2384H108.745C109.476 12.2384 111.12 12.3608 111.12 14.2161C111.12 16.0714 109.476 16.1938 108.745 16.1938H107.101V12.2384Z" fill="white"/>
<path d="M112.775 24.6142H115.84L117.383 20.72H122.904L124.447 24.6142H127.512L121.26 9.52678H119.027L112.775 24.6142ZM118.439 18.0083L120.144 13.6044L121.849 18.0083H118.439Z" fill="white"/>
<path d="M128.755 13.4413H131.536C131.597 12.5035 132.368 11.9734 133.383 11.9734C134.479 11.9734 135.149 12.6258 135.149 13.7676C135.149 14.8277 134.479 15.4598 133.342 15.4598H132.124V18.1714H133.545C135.047 18.1714 135.636 19.1909 135.636 20.1899C135.636 21.1889 135.027 22.1268 133.342 22.1268C131.455 22.1268 131.049 20.7608 131.049 19.9656H128.268C128.065 23.0443 130.379 24.8384 133.241 24.8384C136.286 24.8384 138.417 23.1666 138.417 20.3938C138.417 18.253 137.158 17.0297 135.778 16.6831C137.016 16.1122 137.93 14.9297 137.93 13.4006C137.93 10.8724 136.022 9.26173 133.403 9.26173C130.298 9.26173 128.775 11.1578 128.755 13.4413Z" fill="white"/>
<path d="M140.397 9.52678V24.6142H143.178L149.877 14.0122V24.6142H152.658V9.52678H149.877L143.178 20.1287V9.52678H140.397Z" fill="white"/>
<path d="M155.423 9.52678V24.6142H158.204L164.902 14.0122V24.6142H167.683V9.52678H164.902L158.204 20.1287V9.52678H155.423ZM157.899 5.85687C158.163 7.48794 159.523 8.71124 161.553 8.71124C163.583 8.71124 164.943 7.48794 165.207 5.85687H162.873C162.771 6.57046 162.162 6.87629 161.553 6.87629C160.944 6.87629 160.335 6.57046 160.234 5.85687H157.899Z" fill="white"/>
<path d="M184.495 13.8491C183.237 10.954 180.638 9.26173 177.533 9.26173C172.215 9.26173 169.677 13.7064 169.677 17.0705C169.677 20.5365 172.235 24.9811 177.492 24.9811C180.76 24.9811 183.176 23.1666 184.414 20.5161H181.186C180.253 21.7394 178.913 22.2695 177.573 22.2695C174.691 22.2695 172.458 19.9044 172.458 17.0705C172.458 14.42 174.549 11.9734 177.553 11.9734C179.339 11.9734 180.577 12.8909 181.329 13.8491H184.495Z" fill="white"/>
<path d="M186.287 24.6142H189.068V18.0083L193.736 24.6142H197.065L191.402 16.9481L197.065 9.52678H193.736L189.068 16.0714V9.52678H186.287V24.6142Z" fill="white"/>
<path d="M204.711 9.26173C200.225 9.26173 196.795 12.7889 196.795 17.152C196.795 21.5151 200.245 24.9811 204.711 24.9811C209.177 24.9811 212.627 21.5151 212.627 17.152C212.627 12.7889 209.197 9.26173 204.711 9.26173ZM204.691 22.2695C201.788 22.2695 199.576 19.9452 199.576 17.0909C199.576 14.2773 201.768 11.9734 204.711 11.9734C207.654 11.9734 209.846 14.2773 209.846 17.0909C209.846 19.9044 207.675 22.2695 204.691 22.2695Z" fill="white"/>
<path d="M214.613 24.6142H222.672V21.9025H217.394V18.4365H222.449V15.7248H217.394V12.2384H222.672V9.52678H214.613V24.6142Z" fill="white"/>
<path d="M229.897 24.6142H232.678V12.2384H238.158V24.6142H240.939V9.52678H229.897V24.6142Z" fill="white"/>
<path d="M242.455 24.6142H245.52L247.063 20.72H252.584L254.127 24.6142H257.192L250.94 9.52678H248.707L242.455 24.6142ZM248.118 18.0083L249.823 13.6044L251.528 18.0083H248.118Z" fill="white"/>
<path d="M259.21 24.6142H261.991V12.2384H264.772V9.52678H256.429V12.2384H259.21V24.6142Z" fill="white"/>
<path d="M266.232 24.6142H274.29V21.9025H269.012V18.4365H274.067V15.7248H269.012V12.2384H274.29V9.52678H266.232V24.6142Z" fill="white"/>
<path d="M276.777 24.6142H279.558V18.2938H285.039V24.6142H287.82V9.52678H285.039V15.5821H279.558V9.52678H276.777V24.6142Z" fill="white"/>
<path d="M292.076 24.6142H294.857V12.2384H297.638V9.52678H289.295V12.2384H292.076V24.6142Z" fill="white"/>
<path d="M299.098 24.6142H301.878V18.2938H307.359V24.6142H310.14V9.52678H307.359V15.5821H301.878V9.52678H299.098V24.6142Z" fill="white"/>
<path d="M320.039 9.26173C315.553 9.26173 312.123 12.7889 312.123 17.152C312.123 21.5151 315.573 24.9811 320.039 24.9811C324.505 24.9811 327.955 21.5151 327.955 17.152C327.955 12.7889 324.525 9.26173 320.039 9.26173ZM320.019 22.2695C317.116 22.2695 314.904 19.9452 314.904 17.0909C314.904 14.2773 317.096 11.9734 320.039 11.9734C322.982 11.9734 325.175 14.2773 325.175 17.0909C325.175 19.9044 323.003 22.2695 320.019 22.2695Z" fill="white"/>
<path d="M329.942 24.6142H338V21.9025H332.722V18.4365H337.777V15.7248H332.722V12.2384H338V9.52678H329.942V24.6142Z" fill="white"/>
<path d="M147.306 45.0025H151.061C155.872 45.0025 157.049 42.5967 157.049 40.4151C157.049 38.7229 156.115 37.3161 154.491 36.7656C154.897 36.5413 156.135 35.7666 156.135 33.8909C156.135 29.9355 151.853 29.9151 150.919 29.9151H147.306V45.0025ZM150.087 42.2909V38.4375H151.893C154.065 38.4375 154.268 39.8239 154.268 40.3947C154.268 42.2705 152.218 42.2909 151.893 42.2909H150.087ZM150.087 35.7258V32.6268H151.386C151.995 32.6268 153.355 32.7083 153.355 34.1763C153.355 34.5637 153.213 35.7258 151.386 35.7258H150.087Z" fill="white"/>
<path d="M159.08 45.0025H167.139V42.2909H161.861V38.8248H166.915V36.1132H161.861V32.6268H167.139V29.9151H159.08V45.0025Z" fill="white"/>
<path d="M177.806 29.9151H175.37L169.809 42.2909H168.367V47.8569H171.148V45.0025H181.988V47.8569H184.769V42.2909H183.368L177.806 29.9151ZM172.874 42.2909L176.588 33.7889L180.303 42.2909H172.874Z" fill="white"/>
<path d="M193.422 29.6501C188.936 29.6501 185.506 33.1773 185.506 37.5404C185.506 41.9035 188.956 45.3695 193.422 45.3695C197.888 45.3695 201.338 41.9035 201.338 37.5404C201.338 33.1773 197.908 29.6501 193.422 29.6501ZM193.402 42.6578C190.499 42.6578 188.287 40.3336 188.287 37.4792C188.287 34.6656 190.479 32.3617 193.422 32.3617C196.365 32.3617 198.558 34.6656 198.558 37.4792C198.558 40.2928 196.386 42.6578 193.402 42.6578Z" fill="white"/>
<path d="M203.324 45.0025H206.105V33.7074L210.104 45.0025H212.459L216.458 33.7074V45.0025H219.238V29.9151H215.463L211.281 41.4549L207.1 29.9151H203.324V45.0025Z" fill="white"/>
<path d="M236.044 34.2375C234.785 31.3423 232.187 29.6501 229.082 29.6501C223.763 29.6501 221.226 34.0947 221.226 37.4588C221.226 40.9248 223.784 45.3695 229.041 45.3695C232.309 45.3695 234.724 43.5549 235.963 40.9044H232.735C231.801 42.1277 230.462 42.6578 229.122 42.6578C226.24 42.6578 224.007 40.2928 224.007 37.4588C224.007 34.8083 226.098 32.3617 229.102 32.3617C230.888 32.3617 232.126 33.2792 232.877 34.2375H236.044Z" fill="white"/>
<path d="M239.338 45.0025H242.119V32.6268H244.899V29.9151H236.557V32.6268H239.338V45.0025Z" fill="white"/>
<path d="M246.359 45.0025H250.115C254.925 45.0025 256.103 42.5967 256.103 40.4151C256.103 38.7229 255.169 37.3161 253.545 36.7656C253.951 36.5413 255.189 35.7666 255.189 33.8909C255.189 29.9355 250.906 29.9151 249.972 29.9151H246.359V45.0025ZM249.14 42.2909V38.4375H250.947C253.119 38.4375 253.322 39.8239 253.322 40.3947C253.322 42.2705 251.272 42.2909 250.947 42.2909H249.14ZM249.14 35.7258V32.6268H250.439C251.048 32.6268 252.408 32.7083 252.408 34.1763C252.408 34.5637 252.266 35.7258 250.439 35.7258H249.14Z" fill="white"/>
<path d="M265.279 29.6501C260.793 29.6501 257.363 33.1773 257.363 37.5404C257.363 41.9035 260.813 45.3695 265.279 45.3695C269.745 45.3695 273.195 41.9035 273.195 37.5404C273.195 33.1773 269.765 29.6501 265.279 29.6501ZM265.259 42.6578C262.356 42.6578 260.144 40.3336 260.144 37.4792C260.144 34.6656 262.336 32.3617 265.279 32.3617C268.222 32.3617 270.415 34.6656 270.415 37.4792C270.415 40.2928 268.243 42.6578 265.259 42.6578Z" fill="white"/>
</g>
<defs>
<filter id="filter0_d" x="0.803922" y="0.9465" width="68.7843" height="50.4986" filterUnits="userSpaceOnUse" color-interpolation-filters="sRGB">
<feFlood flood-opacity="0" result="BackgroundImageFix"/>
<feColorMatrix in="SourceAlpha" type="matrix" values="0 0 0 0 0 0 0 0 0 0 0 0 0 0 0 0 0 0 127 0" result="hardAlpha"/>
<feOffset dx="1.19608" dy="1.19608"/>
<feGaussianBlur stdDeviation="1.19608"/>
<feColorMatrix type="matrix" values="0 0 0 0 0 0 0 0 0 0 0 0 0 0 0 0 0 0 0.25 0"/>
<feBlend mode="normal" in2="BackgroundImageFix" result="effect1_dropShadow"/>
<feBlend mode="normal" in="SourceGraphic" in2="effect1_dropShadow" result="shape"/>
</filter>
<filter id="filter1_d" x="80.9999" y="4.85673" width="260.001" height="46.0006" filterUnits="userSpaceOnUse" color-interpolation-filters="sRGB">
<feFlood flood-opacity="0" result="BackgroundImageFix"/>
<feColorMatrix in="SourceAlpha" type="matrix" values="0 0 0 0 0 0 0 0 0 0 0 0 0 0 0 0 0 0 127 0" result="hardAlpha"/>
<feOffset dx="1.00014" dy="1.00014"/>
<feGaussianBlur stdDeviation="1.00014"/>
<feColorMatrix type="matrix" values="0 0 0 0 0 0 0 0 0 0 0 0 0 0 0 0 0 0 0.25 0"/>
<feBlend mode="normal" in2="BackgroundImageFix" result="effect1_dropShadow"/>
<feBlend mode="normal" in="SourceGraphic" in2="effect1_dropShadow" result="shape"/>
</filter>
</defs>
</svg>
