<svg width="139" height="138" viewBox="0 0 139 138" fill="none" xmlns="http://www.w3.org/2000/svg">
<defs>
<filter id="filter0_d_413:13647" x="46.193" y="45.079" width="47.736" height="50.6885" filterUnits="userSpaceOnUse" color-interpolation-filters="sRGB">
<feFlood flood-opacity="0" result="BackgroundImageFix"/>
<feColorMatrix in="SourceAlpha" type="matrix" values="0 0 0 0 0 0 0 0 0 0 0 0 0 0 0 0 0 0 127 0" result="hardAlpha"/>
<feOffset dx="1.64706" dy="1.64706"/>
<feGaussianBlur stdDeviation="1.64706"/>
<feColorMatrix type="matrix" values="0 0 0 0 0 0 0 0 0 0 0 0 0 0 0 0 0 0 0.25 0"/>
<feBlend mode="normal" in2="BackgroundImageFix" result="effect1_dropShadow_413:13647"/>
<feBlend mode="normal" in="SourceGraphic" in2="effect1_dropShadow_413:13647" result="shape"/>
</filter>
<radialGradient id="paint0_radial_413:13647" cx="0" cy="0" r="1" gradientUnits="userSpaceOnUse" gradientTransform="translate(69.6674 69.0003) rotate(90) scale(70.0593)">
<stop offset="0.465948" stop-color="#2174AB"/>
<stop offset="1" stop-color="#003D67"/>
</radialGradient>
</defs>
<path fill-rule="evenodd" clip-rule="evenodd" d="M24.6054 15.3537C21.5025 17.9628 18.6293 20.8361 16.0203 23.9389C19.4882 27.9885 20.2121 33.9412 17.3947 38.8211C14.5742 43.7063 9.048 46.0555 3.80184 45.0686C2.43218 48.8374 1.37678 52.757 0.667301 56.7957C5.70047 58.566 9.30841 63.3618 9.30841 69.0002C9.30841 74.6387 5.70045 79.4344 0.667267 81.2048C1.37679 85.2439 2.43231 89.1638 3.80213 92.9328C9.04846 91.9456 14.575 94.2948 17.3956 99.1803C20.213 104.06 19.489 110.013 16.021 114.063C18.6299 117.165 21.5031 120.038 24.6058 122.647C28.6554 119.18 34.6078 118.456 39.4876 121.273C44.3727 124.094 46.7219 129.62 45.7352 134.866C49.5041 136.235 53.4238 137.291 57.4626 138C59.2328 132.967 64.0287 129.359 69.6673 129.359C75.3059 129.359 80.1018 132.967 81.872 138C85.9109 137.291 89.8306 136.235 93.5994 134.866C92.6126 129.619 94.9618 124.093 99.847 121.273C104.727 118.456 110.679 119.179 114.729 122.647C117.832 120.038 120.705 117.165 123.314 114.063C119.846 110.013 119.122 104.061 121.939 99.1807C124.76 94.2954 130.286 91.9462 135.532 92.9332C136.902 89.1644 137.958 85.2448 138.667 81.206C133.634 79.4357 130.026 74.6399 130.026 69.0014C130.026 63.3627 133.634 58.5669 138.667 56.7966C137.958 52.7576 136.902 48.8377 135.533 45.0687C130.287 46.0555 124.761 43.7063 121.94 38.8211C119.123 33.9413 119.847 27.9886 123.314 23.939C120.705 20.8362 117.832 17.963 114.729 15.354C110.68 18.822 104.727 19.546 99.847 16.7286C94.9616 13.908 92.6124 8.38146 93.5996 3.13513C89.8307 1.76539 85.911 0.70992 81.8722 0.000404515C80.1018 5.03348 75.306 8.64133 69.6677 8.64133C64.0292 8.64133 59.2335 5.03341 57.4631 0.000274658C53.4241 0.70977 49.5043 1.76524 45.7353 3.13501C46.7225 8.38134 44.3733 13.9078 39.4878 16.7284C34.6078 19.5459 28.655 18.8219 24.6054 15.3537Z" fill="url(#paint0_radial_413:13647)"/>
<path d="M104.158 69.5396C104.158 88.2907 88.9576 103.491 70.2065 103.491C51.4555 103.491 36.2547 88.2907 36.2547 69.5396C36.2547 50.7885 51.4555 35.5878 70.2065 35.5878C88.9576 35.5878 104.158 50.7885 104.158 69.5396Z" fill="#83B8CC"/>
<path d="M34.4649 37.6817L34.5304 37.6133C34.9454 37.1797 35.4167 36.8803 35.9443 36.7149C36.4718 36.5445 37.0051 36.5304 37.5444 36.6726C38.0836 36.8147 38.5776 37.1006 39.0263 37.5301C39.6905 38.166 40.0292 38.8983 40.0423 39.7271C40.0578 40.5533 39.7198 41.3277 39.0281 42.0502L39.7354 42.7273L38.6833 43.8262L37.976 43.1491L37.9068 43.2214C37.487 43.66 37.0146 43.9656 36.4897 44.1384C35.9622 44.3088 35.4339 44.3278 34.9048 44.1953C34.3781 44.0604 33.8955 43.7829 33.4569 43.3631C33.0132 42.9384 32.7087 42.4622 32.5433 41.9346C32.3779 41.4071 32.3639 40.8762 32.5011 40.342C32.6359 39.8054 32.9058 39.3204 33.3109 38.8871L33.4128 38.7807L32.6903 38.089L33.7424 36.99L34.4649 37.6817ZM34.2905 39.7594C33.9289 40.1371 33.7629 40.5491 33.7925 40.9952C33.8245 41.4388 34.0572 41.8681 34.4907 42.2831C34.8964 42.6714 35.3189 42.8695 35.7585 42.8773C36.1954 42.8826 36.6008 42.6901 36.9745 42.2997L37.0292 42.2427L34.3597 39.6871L34.2905 39.7594ZM35.4118 38.5882L38.0812 41.1437L38.154 41.0677C38.5108 40.695 38.6745 40.2905 38.6451 39.8543C38.6156 39.4131 38.3981 38.9984 37.9925 38.6101C37.5691 38.2048 37.1363 37.9921 36.694 37.9719C36.2518 37.9518 35.8425 38.1382 35.4664 38.5311L35.4118 38.5882Z" fill="white"/>
<path d="M46.0104 35.3879L43.7188 36.9422L44.1696 38.5447L42.7799 39.4873L40.8388 31.5424L42.0499 30.7209L48.7268 35.4538L47.337 36.3964L46.0104 35.3879ZM43.3537 35.6441L44.9395 34.5685L42.5318 32.7349L43.3537 35.6441Z" fill="white"/>
<path d="M50.6974 31.6824L51.7864 34.1537L50.3412 34.7905L47.2504 27.7766L49.9866 26.5708C50.5133 26.3387 51.0182 26.2312 51.5013 26.2484C51.9877 26.2642 52.417 26.403 52.7893 26.6646C53.1601 26.9231 53.4453 27.2787 53.6449 27.7315C53.9477 28.4188 53.9508 29.0656 53.6542 29.6718C53.3594 30.2735 52.7961 30.7576 51.9644 31.1241L50.6974 31.6824ZM50.1816 30.5118L51.4726 29.9429C51.8548 29.7745 52.1058 29.5565 52.2256 29.2889C52.3487 29.0199 52.3367 28.7184 52.1895 28.3844C52.038 28.0407 51.8145 27.8075 51.5187 27.6847C51.223 27.5619 50.8955 27.5759 50.5362 27.7265L49.2114 28.3103L50.1816 30.5118Z" fill="white"/>
<path d="M57.2078 24.2268L60.2991 29.249L61.0475 23.4028L63.0755 22.9676L64.6836 30.4618L63.1344 30.7943L62.6948 28.7457L62.0904 25.1765L61.266 31.1952L60.2056 31.4227L56.9907 26.2762L57.9028 29.774L58.3424 31.8226L56.7983 32.1539L55.1901 24.6597L57.2078 24.2268Z" fill="white"/>
<path d="M68.6282 27.8281L68.6178 30.5286L67.0385 30.5225L67.0681 22.8578L70.0582 22.8693C70.6338 22.8715 71.1387 22.9788 71.5731 23.191C72.011 23.4033 72.3467 23.7047 72.5803 24.0951C72.814 24.4821 72.9299 24.923 72.9279 25.4178C72.925 26.1688 72.6648 26.7609 72.1472 27.1941C71.6332 27.6238 70.9217 27.8369 70.0127 27.8334L68.6282 27.8281ZM68.6332 26.5489L70.044 26.5543C70.4616 26.5559 70.7796 26.4589 70.9979 26.2632C71.2198 26.0675 71.3314 25.7872 71.3328 25.4222C71.3343 25.0467 71.2249 24.7427 71.0047 24.5102C70.7845 24.2777 70.4796 24.1572 70.0901 24.1487L68.6424 24.1431L68.6332 26.5489Z" fill="white"/>
<path d="M79.1999 28.3353L76.215 27.8014L75.8535 29.8223L79.3566 30.4489L79.1332 31.6978L74.0755 30.7931L75.4251 23.2481L80.4724 24.1509L80.2472 25.4102L76.7545 24.7854L76.4329 26.5836L79.4177 27.1175L79.1999 28.3353Z" fill="white"/>
<path d="M86.3668 30.6275L83.5008 29.6373L82.8304 31.5778L86.1939 32.7399L85.7796 33.939L80.9233 32.2612L83.4263 25.0166L88.2726 26.691L87.8549 27.9001L84.5013 26.7414L83.9048 28.468L86.7708 29.4582L86.3668 30.6275Z" fill="white"/>
<path d="M93.3278 35.1466C92.8798 35.8416 92.3004 36.2648 91.5896 36.4161C90.8819 36.5691 90.134 36.4301 89.3457 35.999C88.4835 35.5276 87.9628 34.8669 87.7836 34.0169C87.6092 33.1655 87.7989 32.2333 88.3529 31.2202L88.5777 30.8091C88.9313 30.1625 89.3567 29.6552 89.854 29.2871C90.3513 28.919 90.8824 28.7194 91.4474 28.6884C92.0171 28.6559 92.5822 28.7929 93.1426 29.0994C93.9186 29.5237 94.43 30.0734 94.6769 30.7484C94.9238 31.4234 94.8787 32.1567 94.5418 32.9485L93.1561 32.1908C93.3597 31.7381 93.4098 31.3575 93.3065 31.049C93.2079 30.7391 92.9462 30.468 92.5213 30.2356C92.0594 29.9831 91.6221 29.9599 91.2093 30.1662C90.8012 30.371 90.4039 30.8198 90.0172 31.5123L89.7394 32.0204C89.342 32.7471 89.1608 33.338 89.1959 33.7932C89.2341 34.25 89.4903 34.6081 89.9645 34.8674C90.3925 35.1015 90.7642 35.1788 91.0797 35.0993C91.3999 35.0184 91.6874 34.7816 91.9421 34.3889L93.3278 35.1466Z" fill="white"/>
<path d="M101.693 36.852L99.8511 35.3958L95.8907 40.4048L94.6519 39.4253L98.6123 34.4163L96.7953 32.9797L97.5887 31.9762L102.486 35.8485L101.693 36.852Z" fill="white"/>
<path d="M101.392 41.9402L99.3879 43.7502L98.3294 42.5781L104.018 37.4409L106.022 39.6601C106.408 40.0872 106.668 40.5328 106.804 40.9969C106.941 41.4636 106.945 41.9148 106.813 42.3504C106.684 42.7836 106.436 43.1661 106.069 43.4978C105.511 44.0011 104.898 44.2072 104.23 44.116C103.566 44.0251 102.929 43.6423 102.32 42.9677L101.392 41.9402ZM102.342 41.0828L103.287 42.1299C103.567 42.4398 103.853 42.6097 104.145 42.6394C104.439 42.6718 104.721 42.5657 104.992 42.321C105.271 42.0693 105.422 41.7838 105.446 41.4645C105.469 41.1452 105.353 40.8386 105.097 40.5448L104.127 39.4704L102.342 41.0828Z" fill="white"/>
<g filter="url(#filter0_d_413:13647)">
<path d="M69.064 66.8609C69.064 66.8609 69.064 61.0101 69.064 58.9805C69.064 53.209 73.1167 48.5156 78.1311 48.5156C83.1456 48.5156 87.1983 53.209 87.1983 58.9805C87.1983 62.6274 87.1983 73.6473 87.1983 77.2941C87.1983 83.0815 83.1456 87.759 78.1311 87.759C75.6858 87.759 73.4602 86.6333 71.8253 84.8098" stroke="#E0F4FF" stroke-width="3.57917" stroke-miterlimit="10" stroke-linecap="round" stroke-linejoin="round"/>
<path d="M87.1982 68.1293H71.262" stroke="#E0F4FF" stroke-width="3.57917" stroke-miterlimit="10" stroke-linecap="round" stroke-linejoin="round"/>
<path d="M78.2279 52.2959C75.2086 52.2959 72.7693 55.2989 72.7693 59.0159V62.376" stroke="#E0F4FF" stroke-width="2.68438" stroke-miterlimit="10" stroke-linecap="round" stroke-linejoin="round"/>
<path d="M67.6591 71.0021C71.8793 75.2235 71.8793 82.0787 67.6591 86.3181C63.439 90.5394 56.5857 90.5394 52.3474 86.3181C48.1273 82.0967 48.1273 75.2415 52.3474 71.0021C56.5857 66.7807 63.439 66.7807 67.6591 71.0021Z" stroke="#E0F4FF" stroke-width="2.68438" stroke-miterlimit="10" stroke-linecap="round" stroke-linejoin="round"/>
<path d="M52.0755 78.6497C52.0755 74.266 55.6284 70.7121 60.0109 70.7121" stroke="#E0F4FF" stroke-width="2.68438" stroke-miterlimit="10" stroke-linecap="round" stroke-linejoin="round"/>
<path d="M52.3635 86.3165L67.6572 71.0005" stroke="#E0F4FF" stroke-width="2.68438" stroke-miterlimit="10" stroke-linecap="round" stroke-linejoin="round"/>
</g>
</svg>
