<svg width="139" height="138" viewBox="0 0 139 138" fill="none" xmlns="http://www.w3.org/2000/svg">
<defs>
<filter id="filter0_d_413:13558" x="47.9247" y="57.1254" width="49.5816" height="28.0249" filterUnits="userSpaceOnUse" color-interpolation-filters="sRGB">
<feFlood flood-opacity="0" result="BackgroundImageFix"/>
<feColorMatrix in="SourceAlpha" type="matrix" values="0 0 0 0 0 0 0 0 0 0 0 0 0 0 0 0 0 0 127 0" result="hardAlpha"/>
<feOffset dx="1.07812" dy="1.07812"/>
<feGaussianBlur stdDeviation="1.07812"/>
<feColorMatrix type="matrix" values="0 0 0 0 0.0196078 0 0 0 0 0.27451 0 0 0 0 0.447059 0 0 0 1 0"/>
<feBlend mode="normal" in2="BackgroundImageFix" result="effect1_dropShadow_413:13558"/>
<feBlend mode="normal" in="SourceGraphic" in2="effect1_dropShadow_413:13558" result="shape"/>
</filter>
<radialGradient id="paint0_radial_413:13558" cx="0" cy="0" r="1" gradientUnits="userSpaceOnUse" gradientTransform="translate(69.5001 69.0001) rotate(90) scale(70.0594)">
<stop offset="0.465948" stop-color="#2174AB"/>
<stop offset="1" stop-color="#003D67"/>
</radialGradient>
</defs>
<path fill-rule="evenodd" clip-rule="evenodd" d="M24.4383 15.3534C21.3354 17.9624 18.4621 20.8357 15.8531 23.9386C19.3211 27.9882 20.0451 33.941 17.2276 38.8209C14.4071 43.7062 8.88078 46.0554 3.63456 45.0684C2.26489 48.8372 1.20948 52.7568 0.500008 56.7955C5.53383 58.5655 9.14238 63.3616 9.14238 69.0005C9.14238 74.6394 5.53389 79.4354 0.500129 81.2055C1.20969 85.2444 2.26522 89.1642 3.63504 92.9332C8.88145 91.9459 14.4081 94.295 17.2288 99.1806C20.0462 104.061 19.3222 110.013 15.8541 114.063C18.463 117.165 21.336 120.038 24.4386 122.647C28.4882 119.18 34.4407 118.456 39.3205 121.273C44.2056 124.093 46.5548 129.619 45.5681 134.866C49.337 136.235 53.2568 137.291 57.2958 138C59.0661 132.967 63.8619 129.359 69.5004 129.359C75.1388 129.359 79.9345 132.967 81.7049 138C85.7438 137.291 89.6636 136.235 93.4325 134.865C92.4458 129.619 94.795 124.093 99.6802 121.273C104.56 118.455 110.512 119.179 114.562 122.647C117.665 120.038 120.538 117.165 123.147 114.062C119.679 110.012 118.955 104.06 121.772 99.1801C124.593 94.2949 130.119 91.9457 135.365 92.9326C136.735 89.1637 137.79 85.2441 138.5 81.2053C133.467 79.4348 129.859 74.6392 129.859 69.0009C129.859 63.3626 133.467 58.5669 138.5 56.7965C137.791 52.7576 136.735 48.8379 135.366 45.0691C130.12 46.0558 124.594 43.7066 121.773 38.8215C118.956 33.9416 119.68 27.989 123.148 23.9394C120.538 20.8363 117.665 17.9629 114.562 15.3537C110.512 18.8217 104.56 19.5457 99.6797 16.7283C94.7943 13.9077 92.4451 8.38122 93.4322 3.13491C89.6636 1.76524 85.7441 0.709813 81.7054 0.000302788C79.9351 5.03357 75.1393 8.64161 69.5008 8.64161C63.8622 8.64161 59.0663 5.03345 57.2961 3.8147e-05C53.2571 0.709508 49.3373 1.76495 45.5684 3.13466C46.5557 8.38105 44.2065 13.9076 39.321 16.7283C34.4409 19.5458 28.4879 18.8217 24.4383 15.3534Z" fill="url(#paint0_radial_413:13558)"/>
<circle cx="70.0394" cy="69.5394" r="33.9518" fill="#83B8CC"/>
<g filter="url(#filter0_d_413:13558)">
<path fill-rule="evenodd" clip-rule="evenodd" d="M83.0245 58.2036H60.3434C54.1061 58.2036 49.0028 63.5389 49.0028 70.0598C49.0028 76.5807 54.1061 81.916 60.3434 81.916C63.6511 81.916 66.6752 80.3351 68.7543 77.9639H74.5191C76.5982 80.3351 79.6224 81.916 82.9301 81.916C89.1674 81.916 94.2706 76.5807 94.2706 70.0598C94.3651 63.5389 89.2619 58.2036 83.0245 58.2036ZM66.0137 72.0358H62.2335V75.9879C62.2335 77.0747 61.3829 77.9639 60.3434 77.9639C59.3038 77.9639 58.4533 77.0747 58.4533 75.9879V72.0358H54.6731C53.6335 72.0358 52.783 71.1466 52.783 70.0598C52.783 68.9729 53.6335 68.0837 54.6731 68.0837H58.4533V64.1317C58.4533 63.0448 59.3038 62.1556 60.3434 62.1556C61.3829 62.1556 62.2335 63.0448 62.2335 64.1317V68.0837H66.0137C67.0532 68.0837 67.9038 68.9729 67.9038 70.0598C67.9038 71.1466 67.0532 72.0358 66.0137 72.0358ZM77.3542 72.0358C76.3147 72.0358 75.4642 71.1466 75.4642 70.0598C75.4642 68.9729 76.3147 68.0837 77.3542 68.0837C78.3938 68.0837 79.2443 68.9729 79.2443 70.0598C79.2443 71.1466 78.3938 72.0358 77.3542 72.0358ZM83.0245 77.9639C81.985 77.9639 81.1344 77.0747 81.1344 75.9879C81.1344 74.901 81.985 74.0118 83.0245 74.0118C84.0641 74.0118 84.9146 74.901 84.9146 75.9879C84.9146 77.0747 84.0641 77.9639 83.0245 77.9639ZM83.0245 66.1077C81.985 66.1077 81.1344 65.2185 81.1344 64.1317C81.1344 63.0448 81.985 62.1556 83.0245 62.1556C84.0641 62.1556 84.9146 63.0448 84.9146 64.1317C84.9146 65.2185 84.0641 66.1077 83.0245 66.1077ZM88.6948 72.0358C87.6553 72.0358 86.8047 71.1466 86.8047 70.0598C86.8047 68.9729 87.6553 68.0837 88.6948 68.0837C89.7344 68.0837 90.5849 68.9729 90.5849 70.0598C90.5849 71.1466 89.7344 72.0358 88.6948 72.0358Z" fill="#E0F4FF"/>
</g>
<path d="M37.455 45.017L36.5667 46.3291L31.2789 42.7495L29.5584 45.291L34.8463 48.8706L33.9609 50.1784L27.6137 45.8817L31.1078 40.7202L37.455 45.017Z" fill="white"/>
<path d="M38.0482 40.2658L39.9494 42.1837L38.8278 43.2955L33.4318 37.852L35.5553 35.747C35.9641 35.3418 36.3971 35.0608 36.8544 34.9039C37.3142 34.7447 37.7647 34.7206 38.206 34.8317C38.6448 34.9403 39.0383 35.1704 39.3867 35.5218C39.9154 36.0552 40.1498 36.658 40.0898 37.3303C40.0298 37.9976 39.677 38.6512 39.0315 39.2911L38.0482 40.2658ZM37.1476 39.3573L38.1496 38.364C38.4462 38.07 38.6026 37.7766 38.6187 37.4839C38.6374 37.1887 38.5182 36.9114 38.2613 36.6522C37.9969 36.3855 37.7047 36.2478 37.3846 36.2389C37.0645 36.2301 36.7637 36.3603 36.4821 36.6295L35.4539 37.6487L37.1476 39.3573Z" fill="white"/>
<path d="M47.3243 31.5974C47.7489 32.2211 48.011 32.843 48.1105 33.4631C48.2099 34.0831 48.1406 34.661 47.9025 35.1968C47.6672 35.7306 47.2842 36.1782 46.7533 36.5396C46.2282 36.8971 45.6738 37.0899 45.09 37.1179C44.5062 37.146 43.9422 37.0035 43.3979 36.6905C42.8517 36.3746 42.3698 35.9131 41.9521 35.3058L41.7388 34.9925C41.3141 34.3688 41.0525 33.7445 40.954 33.1195C40.8564 32.4897 40.9262 31.9093 41.1634 31.3785C41.4015 30.8427 41.7846 30.3951 42.3126 30.0357C42.8405 29.6762 43.396 29.4849 43.9788 29.4617C44.5626 29.4336 45.1281 29.5814 45.6754 29.9051C46.2236 30.2239 46.709 30.6937 47.1317 31.3145L47.3243 31.5974ZM45.8059 32.2108C45.3536 31.5465 44.891 31.1227 44.4181 30.9394C43.9452 30.7562 43.4882 30.8146 43.0473 31.1148C42.6092 31.4131 42.3878 31.8143 42.383 32.3186C42.3762 32.82 42.5955 33.4009 43.0409 34.0614L43.2513 34.3704C43.6917 35.0173 44.1523 35.4382 44.6331 35.6331C45.1139 35.8279 45.5777 35.7733 46.0245 35.4691C46.4625 35.1709 46.6825 34.7706 46.6845 34.2683C46.6844 33.7631 46.4617 33.1803 46.0162 32.5198L45.8059 32.2108Z" fill="white"/>
<path d="M49.3328 26.1381L53.2617 30.5363L52.967 24.6497L54.8864 23.8636L57.7914 30.9565L56.325 31.5571L55.531 29.6182L54.3064 26.2116L54.5567 32.2814L53.5531 32.6924L49.4807 28.1937L50.9956 31.4758L51.7896 33.4146L50.3282 34.0132L47.4232 26.9202L49.3328 26.1381Z" fill="white"/>
<path d="M64.7675 25.8933C64.9037 26.6355 64.8919 27.3102 64.7321 27.9175C64.5724 28.5249 64.2753 29.0254 63.8409 29.4191C63.4099 29.8122 62.8786 30.0667 62.2469 30.1826C61.6221 30.2972 61.037 30.2494 60.4918 30.039C59.9465 29.8286 59.4882 29.4702 59.117 28.9639C58.7452 28.4541 58.491 27.837 58.3546 27.1128L58.2862 26.74C58.15 25.9978 58.1632 25.321 58.3257 24.7096C58.4911 24.0941 58.7896 23.5915 59.2212 23.2019C59.6557 22.8082 60.187 22.5537 60.8152 22.4384C61.4435 22.3232 62.0288 22.3728 62.5713 22.5872C63.1166 22.7976 63.574 23.1615 63.9437 23.6788C64.3162 24.1921 64.5702 24.818 64.7057 25.5567L64.7675 25.8933ZM63.1307 25.8404C62.9857 25.0499 62.7339 24.4752 62.3755 24.1164C62.0171 23.7575 61.5755 23.6263 61.0509 23.7225C60.5296 23.8182 60.1648 24.0956 59.9565 24.5549C59.7476 25.0107 59.7133 25.6307 59.8536 26.4149L59.921 26.7825C60.0623 27.5523 60.3134 28.1235 60.6743 28.4962C61.0353 28.8688 61.4816 29.0064 62.0132 28.9088C62.5344 28.8132 62.8974 28.5361 63.1023 28.0774C63.3065 27.6154 63.3385 26.9922 63.1982 26.208L63.1307 25.8404Z" fill="white"/>
<path d="M71.502 23.0197L68.0802 23.0261L68.083 24.5106L69.3148 24.5083C70.2167 24.5066 70.9313 24.7246 71.4586 25.1623C71.9893 25.5965 72.2554 26.1839 72.2568 26.9244C72.2582 27.6684 71.9961 28.2673 71.4705 28.721C70.9484 29.1712 70.2522 29.4006 69.3818 29.4092L66.497 29.4146L66.4827 21.7498L71.4996 21.7405L71.502 23.0197ZM68.0853 25.7846L68.0897 28.1429L69.3479 28.1406C69.7515 28.1398 70.0724 28.0287 70.3106 27.8072C70.5524 27.5856 70.6729 27.2888 70.6722 26.9168C70.6716 26.5694 70.5552 26.2958 70.3232 26.0962C70.0947 25.8931 69.7804 25.7884 69.3803 25.7821L68.0853 25.7846Z" fill="white"/>
<path d="M75.9419 27.1587L75.4556 29.8152L73.9022 29.5309L75.2821 21.9913L78.2234 22.5296C78.7895 22.6333 79.2677 22.8278 79.6579 23.1133C80.0515 23.3994 80.3288 23.7552 80.49 24.1808C80.6518 24.6028 80.6881 25.0572 80.5991 25.544C80.4638 26.2828 80.1033 26.8197 79.5175 27.1549C78.9358 27.4873 78.1978 27.5717 77.3037 27.408L75.9419 27.1587ZM76.1722 25.9004L77.5599 26.1544C77.9707 26.2296 78.3009 26.1901 78.5503 26.036C78.8031 25.8825 78.9624 25.6262 79.0282 25.2672C79.0958 24.8978 79.0417 24.5793 78.8659 24.3116C78.6901 24.044 78.4112 23.8716 78.0293 23.7946L76.6053 23.534L76.1722 25.9004Z" fill="white"/>
<path d="M85.7484 31.0542L83.1606 30.0688L82.1066 31.3574L80.5373 30.7598L85.9314 24.6121L87.2991 25.1329L87.2526 33.317L85.6832 32.7193L85.7484 31.0542ZM84.0144 29.0251L85.8051 29.707L85.9258 26.683L84.0144 29.0251Z" fill="white"/>
<path d="M94.2621 31.0439C94.4141 30.7954 94.4358 30.5413 94.3272 30.2816C94.2205 30.0189 94.007 29.7895 93.6866 29.5936C93.3992 29.4178 93.1157 29.3432 92.8362 29.3698C92.5615 29.3951 92.3546 29.5216 92.2155 29.7491L90.8681 28.9252C91.0842 28.5719 91.3771 28.3149 91.7468 28.1543C92.1214 27.9926 92.5398 27.9441 93.0021 28.0088C93.4674 28.0753 93.9171 28.2413 94.3513 28.5068C95.1058 28.9682 95.5982 29.4915 95.8286 30.0767C96.059 30.6619 95.9929 31.2509 95.6304 31.8437C95.4528 32.1341 95.1997 32.3496 94.8711 32.49C94.5454 32.6323 94.1752 32.6795 93.7603 32.6314C94.0427 32.9769 94.2009 33.337 94.2351 33.7116C94.2711 34.0833 94.1728 34.4593 93.9403 34.8395C93.5814 35.4263 93.0652 35.7524 92.3917 35.8178C91.7231 35.8819 91.0085 35.6815 90.248 35.2164C89.772 34.9253 89.3933 34.5826 89.1119 34.1884C88.8324 33.7912 88.6798 33.3915 88.6544 32.9892C88.6337 32.5857 88.7378 32.1969 88.9667 31.8226L90.323 32.6521C90.1801 32.8856 90.162 33.144 90.2686 33.4271C90.3769 33.7073 90.5898 33.9445 90.9072 34.1386C91.2665 34.3583 91.5988 34.4505 91.9043 34.4151C92.2128 34.3816 92.443 34.2406 92.5949 33.9921C92.8037 33.6508 92.8601 33.35 92.7642 33.0898C92.6701 32.8266 92.4449 32.586 92.0886 32.3681L91.2847 31.8765L91.9301 30.8211L92.761 31.3292C93.4102 31.7139 93.9106 31.6188 94.2621 31.0439Z" fill="white"/>
<path d="M99.5382 32.0355L100.7 33.1054L96.3668 37.8102L98.6243 39.8893L102.957 35.1846L104.123 36.258L99.7898 40.9628L100.56 41.6725L98.3717 43.8935L97.2875 42.8949L98.5393 41.5358L94.3456 37.6735L99.5382 32.0355Z" fill="white"/>
<path d="M105.487 42.0274L106.188 43.0405C106.701 43.7823 106.927 44.4944 106.865 45.1769C106.809 45.8603 106.476 46.4126 105.867 46.8339C105.255 47.2571 104.613 47.3811 103.942 47.2057C103.275 47.0312 102.691 46.588 102.19 45.8762L100.552 43.508L106.855 39.1476L107.76 40.4551L105.487 42.0274ZM105.101 50.0844L104.202 48.7856L110.506 44.4253L111.404 45.7241L105.101 50.0844ZM104.439 42.7521L102.5 44.0937L103.215 45.1285C103.445 45.4604 103.719 45.6616 104.036 45.7321C104.356 45.8055 104.668 45.7364 104.974 45.5247C105.26 45.3271 105.419 45.0761 105.452 44.7718C105.49 44.4684 105.398 44.1502 105.176 43.8171L104.439 42.7521Z" fill="white"/>
</svg>
