<svg width="42" height="42" viewBox="0 0 42 42" fill="none" xmlns="http://www.w3.org/2000/svg">
<path fill-rule="evenodd" clip-rule="evenodd" d="M21 42C32.598 42 42 32.598 42 21C42 9.40202 32.598 0 21 0C9.40202 0 0 9.40202 0 21C0 32.598 9.40202 42 21 42ZM29.4438 10.623C30.5181 10.1513 31.6669 11.105 31.4798 12.3132L28.7127 30.1892C28.5445 31.2759 27.3877 31.8423 26.4884 31.2784L18.471 26.2507C17.6354 25.7267 17.4975 24.5132 18.1922 23.797L25.3531 16.4139C25.6094 16.1497 25.2825 15.7231 24.9825 15.9304L15.0342 22.8035C14.2988 23.3115 13.3869 23.4502 12.5447 23.182L8.1322 21.7768C7.33319 21.5224 7.27684 20.3555 8.04723 20.0173L29.4438 10.623Z" fill="#1E6FA5"/>
</svg>
