<svg width="48" height="48" viewBox="0 0 48 48" fill="none" xmlns="http://www.w3.org/2000/svg">
<path fill-rule="evenodd" clip-rule="evenodd" d="M24 45C35.598 45 45 35.598 45 24C45 12.402 35.598 3 24 3C12.402 3 3 12.402 3 24C3 35.598 12.402 45 24 45ZM32.4438 13.623C33.5181 13.1513 34.6669 14.105 34.4798 15.3132L31.7127 33.1892C31.5445 34.2759 30.3877 34.8423 29.4884 34.2784L21.471 29.2507C20.6354 28.7267 20.4975 27.5132 21.1922 26.797L28.3531 19.4139C28.6094 19.1497 28.2825 18.7231 27.9825 18.9304L18.0342 25.8035C17.2988 26.3115 16.3869 26.4502 15.5447 26.182L11.1322 24.7768C10.3332 24.5224 10.2768 23.3555 11.0472 23.0173L32.4438 13.623Z" fill="#1E6FA5"/>
</svg>
