<svg 
          width="40" 
          height="40" fill="none" 
          xmlns="http://www.w3.org/2000/svg">
          <path d="M 20 0 C 8.971304686173148 0 0 8.971304686173148 0 20 C 0 31.02869531382685 8.971304686173148 40 20 40 C 31.02869531382685 40 40 31.02869531382685 40 20 C 40 8.971304686173148 31.02869531382685 0 20 0 Z M 29.771303923233695 16.107826232910156 C 29.779999575213246 16.313043625458427 29.785215958305027 16.521738456643146 29.785215958305027 16.73130367113196 C 29.785215958305027 23.09478179268215 24.939129870870836 30.434782608695652 16.079129758088484 30.434782608695652 C 13.359129739844281 30.434782608695652 10.82608699798584 29.637392707492992 8.695652173913043 28.270436162533965 C 9.072173911592234 28.315653554771256 9.453913128894307 28.337392392365828 9.844347912332285 28.337392392365828 C 12.101739178533139 28.337392392365828 14.179131051768426 27.56869430127351 15.82608761994735 26.276520438816235 C 13.718261511429496 26.23825956945834 11.940869248431662 24.84260890794837 11.326086624808934 22.93130459992782 C 11.620869221894637 22.98782633698505 11.92260889903359 23.018261453379754 12.233913255774457 23.018261453379754 C 12.673043686410656 23.018261453379754 13.099130806715593 22.95999919590743 13.501739501953125 22.848694842794668 C 11.300000315127166 22.404347036195837 9.640000384786854 20.45999983082647 9.640000384786854 18.12521727188774 C 9.640000384786854 18.10434770648894 9.640000384786854 18.084347972079463 9.640000384786854 18.06434797204059 C 10.289565583933953 18.425217530001763 11.031304597854614 18.642609054627627 11.821739362633746 18.66782644520635 C 10.52782628847205 17.802609049755596 9.67913005663001 16.329565566519033 9.67913005663001 14.658261174740998 C 9.67913005663001 13.775652491528055 9.91565227508545 12.948694902917612 10.330434882122537 12.235651430876358 C 12.706956656082816 15.149564535721488 16.2565218884012 17.066955877387006 20.25913072668988 17.268695002016813 C 20.176522032074306 16.915651533914648 20.13304337211277 16.54869574567546 20.13304337211277 16.171304453974184 C 20.13304337211277 13.511304440705672 22.289565957110863 11.35478227034859 24.950435472571332 11.35478227034859 C 26.335652911144756 11.35478227034859 27.586957060772438 11.939129725746485 28.465217922044836 12.875651483950406 C 29.561739693517268 12.659999313561812 30.59391156486843 12.259130218754644 31.524346393087637 11.70782586802607 C 31.165215969085693 12.831304176993992 30.400871193927266 13.775652076887049 29.405219036599863 14.37217380689538 C 30.380871192268703 14.253912930903228 31.307826560476556 13.996522348860037 32.17304395592731 13.61304407534392 C 31.52782657872076 14.579130981279457 30.71130389752595 15.42869578237119 29.771303923233695 16.107826232910156 Z" fill="rgb(30.00000011175871,111.00000098347664,165.00000536441803)"/>
        </svg>