<svg width="48" height="48" viewBox="0 0 48 48" fill="none" xmlns="http://www.w3.org/2000/svg">
<path d="M24 4C12.9713 4 4 12.9713 4 24C4 35.0287 12.9713 44 24 44C35.0287 44 44 35.0287 44 24C44 12.9713 35.0287 4 24 4ZM33.7713 20.1078C33.78 20.313 33.7852 20.5217 33.7852 20.7313C33.7852 27.0948 28.9391 34.4348 20.0791 34.4348C17.3591 34.4348 14.8261 33.6374 12.6957 32.2704C13.0722 32.3157 13.4539 32.3374 13.8443 32.3374C16.1017 32.3374 18.1791 31.5687 19.8261 30.2765C17.7183 30.2383 15.9409 28.8426 15.3261 26.9313C15.6209 26.9878 15.9226 27.0183 16.2339 27.0183C16.673 27.0183 17.0991 26.96 17.5017 26.8487C15.3 26.4043 13.64 24.46 13.64 22.1252C13.64 22.1043 13.64 22.0843 13.64 22.0643C14.2896 22.4252 15.0313 22.6426 15.8217 22.6678C14.5278 21.8026 13.6791 20.3296 13.6791 18.6583C13.6791 17.7757 13.9157 16.9487 14.3304 16.2357C16.707 19.1496 20.2565 21.067 24.2591 21.2687C24.1765 20.9157 24.133 20.5487 24.133 20.1713C24.133 17.5113 26.2896 15.3548 28.9504 15.3548C30.3357 15.3548 31.587 15.9391 32.4652 16.8757C33.5617 16.66 34.5939 16.2591 35.5243 15.7078C35.1652 16.8313 34.4009 17.7757 33.4052 18.3722C34.3809 18.2539 35.3078 17.9965 36.173 17.613C35.5278 18.5791 34.7113 19.4287 33.7713 20.1078Z" fill="#1E6FA5"/>
</svg>
