<svg width="48" height="48" viewBox="0 0 48 48" fill="none" xmlns="http://www.w3.org/2000/svg">
<path fill-rule="evenodd" clip-rule="evenodd" d="M24 44C35.0457 44 44 35.0457 44 24C44 12.9543 35.0457 4 24 4C12.9543 4 4 12.9543 4 24C4 35.0457 12.9543 44 24 44ZM33.5615 14.75C34.8886 15.0625 36.0348 16.0625 36.2761 17.4375C36.5777 19 36.8793 21.1875 37 24C36.9397 26.75 36.6381 29 36.3968 30.5625C36.1555 32 35.0093 32.9375 33.6821 33.25C31.5708 33.6875 27.9513 34 23.9698 34C19.9884 34 16.3689 33.6875 14.2575 33.25C12.9304 32.9375 11.7842 31.9375 11.5429 30.5625C11.2413 29 11 26.8125 11 24C11 21.1875 11.2413 19 11.4826 17.4375C11.7239 16 12.8701 15.0625 14.1972 14.75C16.1879 14.3125 19.9281 14 23.9095 14C27.891 14 31.5708 14.3125 33.5615 14.75Z" fill="#1E6FA5"/>
<path d="M30 24L21 29.1962L21 18.8038L30 24Z" fill="#1E6FA5"/>
</svg>
